<svg width="134" height="134" viewBox="0 0 134 134" fill="none" xmlns="http://www.w3.org/2000/svg">
<g clip-path="url(#clip0_3_60)">
<mask id="path-1-inside-1_3_60" fill="white">
<path d="M33.5523 0.392581C30.7519 1.17774 28.3703 3.14063 27.0617 5.75782C26.1457 7.56368 25.9363 10.4688 26.5383 12.4055L26.9308 13.7141L22.848 20.7805C20.5973 24.6801 18.582 28.1348 18.3465 28.475L17.9015 29.077L9.86678 29.0508C1.43944 29.0246 0.575767 29.1293 0.157017 30.2285C0.0785009 30.4641 -1.47191e-05 36.1695 -1.47191e-05 42.8957C-1.47191e-05 54.9086 -1.47284e-05 55.1703 0.549595 55.8508L1.07303 56.5313H10.0238C15.2058 56.5313 19.4719 56.4004 20.1523 56.2434C23.1883 55.5367 26.3551 53.3121 28.1609 50.5902C30.9875 46.3242 31.3539 41.1684 29.1555 36.7977L28.2394 34.9918L30.2285 31.5633C31.3015 29.6789 33.2906 26.2504 34.6254 23.9473L37.0332 19.7859L38.6035 19.2363C40.8019 18.4773 41.5871 18.0063 42.791 16.7762L43.8117 15.7031H58.4941C69.1984 15.7031 73.2551 15.7816 73.4644 15.991C73.7 16.2266 73.5168 16.4883 72.7578 17.0379C71.266 18.1109 70.4285 19.5242 70.1144 21.4871C69.4601 25.5438 70.8211 28.0039 73.7523 28.0039H74.5375L74.6422 31.3801C74.7469 34.6254 74.773 34.8086 75.7152 36.6668C76.2387 37.7398 77.207 39.1793 77.8351 39.8598L79.0129 41.116L79.0914 47.502L79.1699 53.9141L57.9707 53.9664L36.7715 54.0449L35.3582 54.8301C33.8926 55.6414 32.584 57.1332 32.0082 58.7035C31.5633 59.9336 31.5894 62.7078 32.0605 63.6238C32.4531 64.3566 32.3746 64.6969 29.1555 74.459C25.884 84.4828 25.8578 84.5352 25.1512 84.5352C24.7324 84.5352 23.5285 84.6137 22.4555 84.6922L20.5187 84.8754L20.2047 83.8547C19.7336 82.232 18.4512 80.7141 16.9594 79.9813C15.6769 79.327 15.389 79.3008 11.3062 79.3008C6.30741 79.3008 5.60077 79.5102 4.58006 81.2637L3.92577 82.3629V96.4957V110.655L3.03592 110.812C1.96288 111.021 0.916001 111.806 0.392563 112.801C-0.20939 113.979 -0.157046 119.448 0.471079 120.626C1.36092 122.301 2.09374 122.484 7.74686 122.484H12.7719L13.0859 123.714C13.9758 127.379 16.6976 130.833 19.9168 132.404C26.9047 135.832 35.1226 133.293 38.4465 126.646C39.0222 125.546 39.5457 124.133 39.6504 123.557L39.8336 122.484H65.9531H92.0988L92.5176 123.976C93.8262 128.425 96.9668 131.775 101.285 133.241C103.693 134.079 107.776 134.079 110.184 133.241C114.502 131.749 117.826 128.216 118.899 124.029L119.265 122.615L125.52 122.484C130.99 122.38 131.854 122.301 132.482 121.882C133.686 121.045 134 119.998 134 116.543C134 113.952 133.921 113.324 133.477 112.618C132.822 111.545 131.932 110.969 130.624 110.786L129.577 110.629L129.498 101.966L129.42 93.3027L128.687 91.8109C127.902 90.1883 126.724 89.0367 125.075 88.1731C123.924 87.5973 116.779 86.5242 115.968 86.8121C115.052 87.1524 114.633 87.7543 114.633 88.7488C114.633 90.1883 115.261 90.4762 119.239 90.9734C121.202 91.209 123.008 91.5754 123.531 91.8371C124.369 92.2559 125.599 93.9309 125.625 94.6637C125.625 94.8731 124.473 94.9777 121.778 95.0563C118.637 95.1348 117.721 95.2395 116.988 95.632C114.711 96.8359 113.743 98.4848 113.717 101.18C113.717 102.777 113.821 103.196 114.502 104.321C114.999 105.106 115.784 105.891 116.57 106.389C117.826 107.148 117.957 107.174 121.752 107.252L125.625 107.357V109.032V110.707H120.626H115.653L114.423 109.686C110 105.996 103.17 105.63 98.2754 108.823C97.4117 109.372 96.548 110.027 96.3387 110.262C96.0246 110.681 94.5851 110.707 79.5363 110.707H63.0742V99.4531V88.1992H75.7676H88.4609V88.7488C88.4609 89.5602 89.2199 90.6856 90.1359 91.2352C90.8164 91.6539 91.4707 91.7324 94.2187 91.7324C97.1762 91.7324 97.5687 91.6801 98.4586 91.1305C99.0082 90.7902 99.6625 90.1621 99.898 89.7172L100.369 88.932L102.332 89.0891C103.405 89.1938 105.054 89.3246 105.996 89.4293C108.09 89.6125 108.953 89.0891 108.953 87.6758C108.953 86.1055 108.142 85.7129 104.216 85.3203L100.84 85.0063L100.683 83.2527C100.605 82.3106 100.631 81.4469 100.709 81.3684C101.18 80.8973 121.15 71.3707 121.882 71.266C122.511 71.1613 123.243 71.3707 124.735 72.0773C125.834 72.6008 126.881 73.0195 127.064 73.0195C127.248 73.0195 127.693 72.784 128.085 72.4699C129.106 71.6848 129.053 70.1145 128.007 69.3555C125.703 67.7328 122.929 67 120.731 67.4711C120.024 67.6281 114.79 70.0359 109.111 72.8363L98.7726 77.9137L97.7519 77.0238C97.1762 76.5266 96.0508 75.9508 95.1609 75.6629L93.5644 75.1918L91.7062 69.7219C89.9789 64.6707 89.8742 64.1996 90.1883 63.5453C90.607 62.734 90.6594 60.457 90.293 59.1484C89.5601 56.4527 87.1262 54.3852 84.3519 54.0188L82.9648 53.8617V47.5805V41.2992L84.4043 39.7289C86.9168 37.0332 87.6758 34.8609 87.6758 30.4902V28.0039H88.4609C89.7172 28.0039 91.0258 27.3234 91.6015 26.3813C92.0203 25.6746 92.125 25.0727 92.125 23.1359C92.125 21.0684 92.0465 20.5973 91.3922 19.341C90.9734 18.5035 90.2406 17.5875 89.6125 17.1164L88.5394 16.3313L89.2461 15.2844C91.5492 11.9867 91.3398 7.22344 88.7488 3.8211C86.8121 1.23008 83.4359 -0.235544 80.2168 0.10469C78.2539 0.287894 75.218 1.75352 74.0926 3.00977L73.3074 3.92578H65.7176C60.4832 3.92578 57.9183 4.03047 57.4472 4.23985C56.3219 4.73711 56.1125 6.56914 57.107 7.38047C57.5781 7.79922 58.3371 7.85157 64.5137 7.85157H71.423L71.3969 9.81446V11.7773H58.5465H45.6699V9.81446V7.85157H47.7113C48.8367 7.85157 49.9883 7.72071 50.2762 7.56368C51.5324 6.90938 51.4277 4.81563 50.093 4.21367C49.7265 4.05664 48.1824 3.92578 46.6644 3.92578H43.8902L42.6078 2.72188C40.1476 0.418753 36.6668 -0.471091 33.5523 0.392581ZM38.7082 4.71094C42.032 6.41211 42.8172 10.7566 40.357 13.6356C37.5305 16.9332 32.4269 16.1481 30.5949 12.1699C30.0453 10.966 29.9668 9.50039 30.3855 7.98243C30.7519 6.62149 32.7933 4.63242 34.1805 4.23985C35.489 3.87344 37.5043 4.08282 38.7082 4.71094ZM84.2734 4.92032C86.6289 6.3336 87.5972 9.89297 86.341 12.484C84.7183 15.834 80.2691 16.75 77.3117 14.316C74.5637 12.0391 74.7207 7.19727 77.6519 5.12969C79.641 3.74258 82.1797 3.66407 84.2734 4.92032ZM30.6734 18.0586C31.2492 18.4773 31.9035 18.8438 32.0867 18.8438C32.2699 18.8438 32.5055 18.9484 32.584 19.1055C32.6887 19.2887 26.0672 31.2231 25.4652 31.9297C25.4129 31.982 25.1512 31.9035 24.9156 31.7203C24.6801 31.5633 23.9211 31.1184 23.2406 30.752L22.0105 30.0977L25.7008 23.6856C27.7422 20.1523 29.4433 17.2734 29.4957 17.2734C29.548 17.2734 30.0715 17.6137 30.6734 18.0586ZM86.8906 20.0215C87.9113 20.5449 88.1992 21.1469 88.1992 22.7434V24.0781H81.0019H73.8047V23.3453C73.8047 21.8797 74.3281 20.6496 75.1918 20.1523C75.9508 19.6813 76.5265 19.6289 81.0805 19.6289C85.0847 19.6289 86.2887 19.7074 86.8906 20.0215ZM83.75 30.4379C83.75 33.3953 83.2789 35.0965 82.075 36.5098L81.1851 37.5566L80.6094 37.0332C80.2953 36.7453 79.7195 35.9863 79.3269 35.332C78.725 34.2852 78.6465 33.8402 78.5418 31.066L78.4633 28.0039H81.1066H83.75V30.4379ZM18.2941 33.2645C20.7019 33.6309 22.5078 34.5992 24.0519 36.2481C25.8316 38.2109 26.5121 40.043 26.5121 42.9219C26.5121 46.9523 24.7324 49.9098 21.2515 51.6109L19.498 52.4746L11.725 52.5531L3.92577 52.6316V42.8172V32.9766H10.2855C13.7664 32.9766 17.3781 33.1074 18.2941 33.2645ZM85.582 58.7559C86.0008 59.1746 86.4195 59.9336 86.5242 60.3785L86.7074 61.2422H61.1375H35.5937V60.6926C35.5937 59.8551 36.4051 58.6773 37.2687 58.2324C37.9754 57.8922 41.0113 57.866 61.4254 57.9184L84.7969 57.9707L85.582 58.7559ZM54.9609 74.7207V84.2734H42.5031C31.8512 84.2734 30.0715 84.2211 30.1762 83.907C30.2547 83.6977 31.6418 79.484 33.2644 74.5375C34.8609 69.591 36.2219 65.482 36.3004 65.3512C36.3527 65.2465 40.5926 65.168 45.6961 65.168H54.9609V74.7207ZM62.8125 74.7207V84.2734H60.9805H59.1484V74.7207V65.168H60.9805H62.8125V74.7207ZM87.7805 70.35C88.7226 73.1766 89.5078 75.6629 89.5078 75.8461C89.5078 76.0555 89.2722 76.5004 88.9844 76.8668C88.5133 77.4688 88.4609 77.9398 88.4609 80.8973V84.2734H77.7305H67V74.7207V65.168H76.5265H86.0531L87.7805 70.35ZM94.9254 79.8242C96.234 80.6094 96.6527 81.7086 96.7836 84.6137C96.9144 87.8328 96.8621 87.9375 94.3234 87.9375H92.3867V83.6191V79.3008H93.2504C93.6953 79.3008 94.4543 79.5363 94.9254 79.8242ZM15.8078 84.0379C16.4621 84.7969 16.4883 84.9801 16.4883 87.859C16.4883 91.3137 16.1742 92.2559 14.7086 93.3813C13.8449 94.0356 13.557 94.0879 10.809 94.1664L7.85155 94.2711V88.7488V83.2266H11.4894H15.1273L15.8078 84.0379ZM59.1484 99.4531V110.707H47.7898H36.4051L34.7039 109.425C30.5949 106.31 25.1512 105.734 20.5187 107.933C19.498 108.43 18.1633 109.241 17.5875 109.765L16.5668 110.707H12.1961H7.85155V104.452V98.1969L11.2015 98.0922C14.316 98.0137 14.6301 97.9613 15.9387 97.2285C18.582 95.7629 20.414 92.8578 20.414 90.0574V88.775L23.2406 88.5918C24.7848 88.5133 26.1719 88.3824 26.3027 88.3301C26.4597 88.2777 33.8926 88.2254 42.8695 88.2254L59.1484 88.1992V99.4531ZM125.625 101.154V103.379H122.484C119.108 103.379 118.245 103.143 117.8 102.149C117.433 101.364 117.433 100.945 117.8 100.134C118.245 99.1391 118.977 98.9559 122.432 98.9559L125.625 98.9297V101.154ZM30.0191 111.283C32.898 112.356 34.9394 114.659 35.7508 117.773C36.9285 122.432 34.7824 127.091 30.4902 129.158C29.1031 129.839 28.632 129.917 26.4336 129.943C24.2351 129.943 23.764 129.865 22.3246 129.184C20.5187 128.373 18.4512 126.384 17.5875 124.683C15.8078 121.176 16.4359 116.7 19.1316 113.717C21.8797 110.733 26.0148 109.791 30.0191 111.283ZM109.032 111.152C110.759 111.649 112.696 113.141 113.795 114.738C115.025 116.596 115.496 118.48 115.366 121.019C115.287 122.798 115.104 123.4 114.397 124.788C113.324 126.75 111.702 128.321 109.712 129.237C108.43 129.839 107.88 129.943 105.734 129.943C103.588 129.943 103.039 129.839 101.756 129.237C99.7672 128.321 98.1445 126.75 97.0715 124.788C96.2078 123.217 96.1816 123.008 96.1816 120.391C96.1816 117.957 96.2601 117.459 96.8621 116.177C99.0082 111.597 103.85 109.608 109.032 111.152ZM13.3215 115.994C13.0598 116.753 12.8504 117.643 12.8242 117.957C12.8242 118.559 12.8242 118.559 8.37498 118.559H3.92577V116.596V114.633H8.84608H13.7926L13.3215 115.994ZM93.041 115.078C92.9101 115.339 92.6484 116.229 92.439 117.067L92.0465 118.559L66.0055 118.506L39.9644 118.428L39.6242 117.119C39.441 116.386 39.2316 115.549 39.1269 115.209L38.9437 114.633H66.084C91.8371 114.633 93.2242 114.659 93.041 115.078ZM130.074 116.596V118.559H124.735H119.422L119.03 117.041C118.82 116.229 118.559 115.339 118.428 115.078C118.245 114.659 118.611 114.633 124.159 114.633H130.074V116.596Z"/>
</mask>
<path d="M33.5523 0.392581C30.7519 1.17774 28.3703 3.14063 27.0617 5.75782C26.1457 7.56368 25.9363 10.4688 26.5383 12.4055L26.9308 13.7141L22.848 20.7805C20.5973 24.6801 18.582 28.1348 18.3465 28.475L17.9015 29.077L9.86678 29.0508C1.43944 29.0246 0.575767 29.1293 0.157017 30.2285C0.0785009 30.4641 -1.47191e-05 36.1695 -1.47191e-05 42.8957C-1.47191e-05 54.9086 -1.47284e-05 55.1703 0.549595 55.8508L1.07303 56.5313H10.0238C15.2058 56.5313 19.4719 56.4004 20.1523 56.2434C23.1883 55.5367 26.3551 53.3121 28.1609 50.5902C30.9875 46.3242 31.3539 41.1684 29.1555 36.7977L28.2394 34.9918L30.2285 31.5633C31.3015 29.6789 33.2906 26.2504 34.6254 23.9473L37.0332 19.7859L38.6035 19.2363C40.8019 18.4773 41.5871 18.0063 42.791 16.7762L43.8117 15.7031H58.4941C69.1984 15.7031 73.2551 15.7816 73.4644 15.991C73.7 16.2266 73.5168 16.4883 72.7578 17.0379C71.266 18.1109 70.4285 19.5242 70.1144 21.4871C69.4601 25.5438 70.8211 28.0039 73.7523 28.0039H74.5375L74.6422 31.3801C74.7469 34.6254 74.773 34.8086 75.7152 36.6668C76.2387 37.7398 77.207 39.1793 77.8351 39.8598L79.0129 41.116L79.0914 47.502L79.1699 53.9141L57.9707 53.9664L36.7715 54.0449L35.3582 54.8301C33.8926 55.6414 32.584 57.1332 32.0082 58.7035C31.5633 59.9336 31.5894 62.7078 32.0605 63.6238C32.4531 64.3566 32.3746 64.6969 29.1555 74.459C25.884 84.4828 25.8578 84.5352 25.1512 84.5352C24.7324 84.5352 23.5285 84.6137 22.4555 84.6922L20.5187 84.8754L20.2047 83.8547C19.7336 82.232 18.4512 80.7141 16.9594 79.9813C15.6769 79.327 15.389 79.3008 11.3062 79.3008C6.30741 79.3008 5.60077 79.5102 4.58006 81.2637L3.92577 82.3629V96.4957V110.655L3.03592 110.812C1.96288 111.021 0.916001 111.806 0.392563 112.801C-0.20939 113.979 -0.157046 119.448 0.471079 120.626C1.36092 122.301 2.09374 122.484 7.74686 122.484H12.7719L13.0859 123.714C13.9758 127.379 16.6976 130.833 19.9168 132.404C26.9047 135.832 35.1226 133.293 38.4465 126.646C39.0222 125.546 39.5457 124.133 39.6504 123.557L39.8336 122.484H65.9531H92.0988L92.5176 123.976C93.8262 128.425 96.9668 131.775 101.285 133.241C103.693 134.079 107.776 134.079 110.184 133.241C114.502 131.749 117.826 128.216 118.899 124.029L119.265 122.615L125.52 122.484C130.99 122.38 131.854 122.301 132.482 121.882C133.686 121.045 134 119.998 134 116.543C134 113.952 133.921 113.324 133.477 112.618C132.822 111.545 131.932 110.969 130.624 110.786L129.577 110.629L129.498 101.966L129.42 93.3027L128.687 91.8109C127.902 90.1883 126.724 89.0367 125.075 88.1731C123.924 87.5973 116.779 86.5242 115.968 86.8121C115.052 87.1524 114.633 87.7543 114.633 88.7488C114.633 90.1883 115.261 90.4762 119.239 90.9734C121.202 91.209 123.008 91.5754 123.531 91.8371C124.369 92.2559 125.599 93.9309 125.625 94.6637C125.625 94.8731 124.473 94.9777 121.778 95.0563C118.637 95.1348 117.721 95.2395 116.988 95.632C114.711 96.8359 113.743 98.4848 113.717 101.18C113.717 102.777 113.821 103.196 114.502 104.321C114.999 105.106 115.784 105.891 116.57 106.389C117.826 107.148 117.957 107.174 121.752 107.252L125.625 107.357V109.032V110.707H120.626H115.653L114.423 109.686C110 105.996 103.17 105.63 98.2754 108.823C97.4117 109.372 96.548 110.027 96.3387 110.262C96.0246 110.681 94.5851 110.707 79.5363 110.707H63.0742V99.4531V88.1992H75.7676H88.4609V88.7488C88.4609 89.5602 89.2199 90.6856 90.1359 91.2352C90.8164 91.6539 91.4707 91.7324 94.2187 91.7324C97.1762 91.7324 97.5687 91.6801 98.4586 91.1305C99.0082 90.7902 99.6625 90.1621 99.898 89.7172L100.369 88.932L102.332 89.0891C103.405 89.1938 105.054 89.3246 105.996 89.4293C108.09 89.6125 108.953 89.0891 108.953 87.6758C108.953 86.1055 108.142 85.7129 104.216 85.3203L100.84 85.0063L100.683 83.2527C100.605 82.3106 100.631 81.4469 100.709 81.3684C101.18 80.8973 121.15 71.3707 121.882 71.266C122.511 71.1613 123.243 71.3707 124.735 72.0773C125.834 72.6008 126.881 73.0195 127.064 73.0195C127.248 73.0195 127.693 72.784 128.085 72.4699C129.106 71.6848 129.053 70.1145 128.007 69.3555C125.703 67.7328 122.929 67 120.731 67.4711C120.024 67.6281 114.79 70.0359 109.111 72.8363L98.7726 77.9137L97.7519 77.0238C97.1762 76.5266 96.0508 75.9508 95.1609 75.6629L93.5644 75.1918L91.7062 69.7219C89.9789 64.6707 89.8742 64.1996 90.1883 63.5453C90.607 62.734 90.6594 60.457 90.293 59.1484C89.5601 56.4527 87.1262 54.3852 84.3519 54.0188L82.9648 53.8617V47.5805V41.2992L84.4043 39.7289C86.9168 37.0332 87.6758 34.8609 87.6758 30.4902V28.0039H88.4609C89.7172 28.0039 91.0258 27.3234 91.6015 26.3813C92.0203 25.6746 92.125 25.0727 92.125 23.1359C92.125 21.0684 92.0465 20.5973 91.3922 19.341C90.9734 18.5035 90.2406 17.5875 89.6125 17.1164L88.5394 16.3313L89.2461 15.2844C91.5492 11.9867 91.3398 7.22344 88.7488 3.8211C86.8121 1.23008 83.4359 -0.235544 80.2168 0.10469C78.2539 0.287894 75.218 1.75352 74.0926 3.00977L73.3074 3.92578H65.7176C60.4832 3.92578 57.9183 4.03047 57.4472 4.23985C56.3219 4.73711 56.1125 6.56914 57.107 7.38047C57.5781 7.79922 58.3371 7.85157 64.5137 7.85157H71.423L71.3969 9.81446V11.7773H58.5465H45.6699V9.81446V7.85157H47.7113C48.8367 7.85157 49.9883 7.72071 50.2762 7.56368C51.5324 6.90938 51.4277 4.81563 50.093 4.21367C49.7265 4.05664 48.1824 3.92578 46.6644 3.92578H43.8902L42.6078 2.72188C40.1476 0.418753 36.6668 -0.471091 33.5523 0.392581ZM38.7082 4.71094C42.032 6.41211 42.8172 10.7566 40.357 13.6356C37.5305 16.9332 32.4269 16.1481 30.5949 12.1699C30.0453 10.966 29.9668 9.50039 30.3855 7.98243C30.7519 6.62149 32.7933 4.63242 34.1805 4.23985C35.489 3.87344 37.5043 4.08282 38.7082 4.71094ZM84.2734 4.92032C86.6289 6.3336 87.5972 9.89297 86.341 12.484C84.7183 15.834 80.2691 16.75 77.3117 14.316C74.5637 12.0391 74.7207 7.19727 77.6519 5.12969C79.641 3.74258 82.1797 3.66407 84.2734 4.92032ZM30.6734 18.0586C31.2492 18.4773 31.9035 18.8438 32.0867 18.8438C32.2699 18.8438 32.5055 18.9484 32.584 19.1055C32.6887 19.2887 26.0672 31.2231 25.4652 31.9297C25.4129 31.982 25.1512 31.9035 24.9156 31.7203C24.6801 31.5633 23.9211 31.1184 23.2406 30.752L22.0105 30.0977L25.7008 23.6856C27.7422 20.1523 29.4433 17.2734 29.4957 17.2734C29.548 17.2734 30.0715 17.6137 30.6734 18.0586ZM86.8906 20.0215C87.9113 20.5449 88.1992 21.1469 88.1992 22.7434V24.0781H81.0019H73.8047V23.3453C73.8047 21.8797 74.3281 20.6496 75.1918 20.1523C75.9508 19.6813 76.5265 19.6289 81.0805 19.6289C85.0847 19.6289 86.2887 19.7074 86.8906 20.0215ZM83.75 30.4379C83.75 33.3953 83.2789 35.0965 82.075 36.5098L81.1851 37.5566L80.6094 37.0332C80.2953 36.7453 79.7195 35.9863 79.3269 35.332C78.725 34.2852 78.6465 33.8402 78.5418 31.066L78.4633 28.0039H81.1066H83.75V30.4379ZM18.2941 33.2645C20.7019 33.6309 22.5078 34.5992 24.0519 36.2481C25.8316 38.2109 26.5121 40.043 26.5121 42.9219C26.5121 46.9523 24.7324 49.9098 21.2515 51.6109L19.498 52.4746L11.725 52.5531L3.92577 52.6316V42.8172V32.9766H10.2855C13.7664 32.9766 17.3781 33.1074 18.2941 33.2645ZM85.582 58.7559C86.0008 59.1746 86.4195 59.9336 86.5242 60.3785L86.7074 61.2422H61.1375H35.5937V60.6926C35.5937 59.8551 36.4051 58.6773 37.2687 58.2324C37.9754 57.8922 41.0113 57.866 61.4254 57.9184L84.7969 57.9707L85.582 58.7559ZM54.9609 74.7207V84.2734H42.5031C31.8512 84.2734 30.0715 84.2211 30.1762 83.907C30.2547 83.6977 31.6418 79.484 33.2644 74.5375C34.8609 69.591 36.2219 65.482 36.3004 65.3512C36.3527 65.2465 40.5926 65.168 45.6961 65.168H54.9609V74.7207ZM62.8125 74.7207V84.2734H60.9805H59.1484V74.7207V65.168H60.9805H62.8125V74.7207ZM87.7805 70.35C88.7226 73.1766 89.5078 75.6629 89.5078 75.8461C89.5078 76.0555 89.2722 76.5004 88.9844 76.8668C88.5133 77.4688 88.4609 77.9398 88.4609 80.8973V84.2734H77.7305H67V74.7207V65.168H76.5265H86.0531L87.7805 70.35ZM94.9254 79.8242C96.234 80.6094 96.6527 81.7086 96.7836 84.6137C96.9144 87.8328 96.8621 87.9375 94.3234 87.9375H92.3867V83.6191V79.3008H93.2504C93.6953 79.3008 94.4543 79.5363 94.9254 79.8242ZM15.8078 84.0379C16.4621 84.7969 16.4883 84.9801 16.4883 87.859C16.4883 91.3137 16.1742 92.2559 14.7086 93.3813C13.8449 94.0356 13.557 94.0879 10.809 94.1664L7.85155 94.2711V88.7488V83.2266H11.4894H15.1273L15.8078 84.0379ZM59.1484 99.4531V110.707H47.7898H36.4051L34.7039 109.425C30.5949 106.31 25.1512 105.734 20.5187 107.933C19.498 108.43 18.1633 109.241 17.5875 109.765L16.5668 110.707H12.1961H7.85155V104.452V98.1969L11.2015 98.0922C14.316 98.0137 14.6301 97.9613 15.9387 97.2285C18.582 95.7629 20.414 92.8578 20.414 90.0574V88.775L23.2406 88.5918C24.7848 88.5133 26.1719 88.3824 26.3027 88.3301C26.4597 88.2777 33.8926 88.2254 42.8695 88.2254L59.1484 88.1992V99.4531ZM125.625 101.154V103.379H122.484C119.108 103.379 118.245 103.143 117.8 102.149C117.433 101.364 117.433 100.945 117.8 100.134C118.245 99.1391 118.977 98.9559 122.432 98.9559L125.625 98.9297V101.154ZM30.0191 111.283C32.898 112.356 34.9394 114.659 35.7508 117.773C36.9285 122.432 34.7824 127.091 30.4902 129.158C29.1031 129.839 28.632 129.917 26.4336 129.943C24.2351 129.943 23.764 129.865 22.3246 129.184C20.5187 128.373 18.4512 126.384 17.5875 124.683C15.8078 121.176 16.4359 116.7 19.1316 113.717C21.8797 110.733 26.0148 109.791 30.0191 111.283ZM109.032 111.152C110.759 111.649 112.696 113.141 113.795 114.738C115.025 116.596 115.496 118.48 115.366 121.019C115.287 122.798 115.104 123.4 114.397 124.788C113.324 126.75 111.702 128.321 109.712 129.237C108.43 129.839 107.88 129.943 105.734 129.943C103.588 129.943 103.039 129.839 101.756 129.237C99.7672 128.321 98.1445 126.75 97.0715 124.788C96.2078 123.217 96.1816 123.008 96.1816 120.391C96.1816 117.957 96.2601 117.459 96.8621 116.177C99.0082 111.597 103.85 109.608 109.032 111.152ZM13.3215 115.994C13.0598 116.753 12.8504 117.643 12.8242 117.957C12.8242 118.559 12.8242 118.559 8.37498 118.559H3.92577V116.596V114.633H8.84608H13.7926L13.3215 115.994ZM93.041 115.078C92.9101 115.339 92.6484 116.229 92.439 117.067L92.0465 118.559L66.0055 118.506L39.9644 118.428L39.6242 117.119C39.441 116.386 39.2316 115.549 39.1269 115.209L38.9437 114.633H66.084C91.8371 114.633 93.2242 114.659 93.041 115.078ZM130.074 116.596V118.559H124.735H119.422L119.03 117.041C118.82 116.229 118.559 115.339 118.428 115.078C118.245 114.659 118.611 114.633 124.159 114.633H130.074V116.596Z" stroke="black" stroke-width="4" mask="url(#path-1-inside-1_3_60)"/>
<path d="M35.3763 10.9309L35.3832 10.9377L35.39 10.9446C35.6721 11.2308 35.8937 11.2758 36.0249 11.2721C36.171 11.268 36.3559 11.1983 36.5383 11.0088C36.9079 10.6247 37.1498 9.84389 36.752 8.9742L36.7469 8.96322L36.7422 8.95213C36.7279 8.9187 36.6711 8.82516 36.5616 8.7157C36.4522 8.60625 36.3586 8.54949 36.3252 8.53516L36.3115 8.5293L36.298 8.52303C36.1074 8.4345 36.0084 8.39085 35.9387 8.36597C35.937 8.36537 35.9354 8.36479 35.9338 8.36425C35.9284 8.36579 35.9223 8.3676 35.9154 8.36971C35.836 8.39404 35.7258 8.43613 35.5247 8.51652C35.3689 8.58173 35.0884 8.88452 35.0134 9.52775C34.9413 10.1476 35.1188 10.6796 35.3763 10.9309Z" stroke="black" stroke-width="2"/>
<path d="M80.1523 10.177L80.1538 10.1848L80.1551 10.1927C80.2616 10.8048 80.5909 11.1258 80.8574 11.236C81.0937 11.3337 81.3776 11.3165 81.6585 11.0159L81.6642 11.0098L81.6701 11.0038C81.7096 10.9629 81.7935 10.8389 81.869 10.5918C81.9407 10.3571 81.9857 10.0724 81.9948 9.78009C82.0039 9.48618 81.9756 9.22037 81.9246 9.02118C81.8844 8.86445 81.8447 8.80343 81.8404 8.79503C81.5949 8.58033 81.4024 8.50038 81.2663 8.47585C81.1385 8.45282 80.9902 8.46514 80.7949 8.56279C80.376 8.77224 80.0109 9.4346 80.1523 10.177Z" stroke="black" stroke-width="2"/>
<path d="M15.7054 38.1354L15.7022 38.1362C14.506 38.4249 13.2614 39.4379 12.5902 40.7579L12.586 40.7662L12.5817 40.7743C12.2616 41.3761 12.1365 41.6835 12.0789 41.9588C12.0219 42.231 12.0163 42.5405 12.0671 43.178C12.376 46.6349 15.8223 48.6548 18.9505 47.221L18.958 47.2176L18.9655 47.2143C19.6742 46.9035 20.0605 46.6683 20.3397 46.412C20.6125 46.1615 20.8424 45.8365 21.1454 45.2426C21.8368 43.8819 21.9018 42.3158 21.3598 41.1066C21.0167 40.3441 20.7771 39.9306 20.5066 39.6194C20.2432 39.3163 19.9017 39.0548 19.26 38.6846L19.26 38.6846L19.2535 38.6808C18.2693 38.1031 16.7298 37.8845 15.7054 38.1354ZM19.4638 41.4034L19.4639 41.4033L19.4702 41.4156C19.7379 41.9331 19.8798 42.4969 19.803 43.1005C19.7275 43.6941 19.4536 44.2208 19.0776 44.6948L19.0776 44.6948L19.075 44.6981C18.0182 46.0192 16.4225 45.9906 15.339 45.2941C14.268 44.6056 13.556 43.1891 14.1401 41.6509L14.1432 41.6426L14.1465 41.6345C14.6027 40.4938 15.8515 40.1088 16.7442 40.0774C17.6436 40.0457 18.8969 40.3435 19.4638 41.4034Z" stroke="black" stroke-width="2"/>
<path d="M34.2802 95.4955L34.2737 95.4985L34.2672 95.5013C33.6205 95.7843 33.5284 96.497 33.9454 96.914C34.0175 96.9862 34.0447 97.0005 34.059 97.0077C34.0791 97.0178 34.1413 97.0452 34.3096 97.0711C34.6851 97.1289 35.3178 97.1445 36.5883 97.1445H39.3886H39.716L39.98 97.3381L41.9407 98.776C41.9411 98.7763 41.9415 98.7765 41.9418 98.7768C42.5432 99.2152 43.0419 99.5254 43.4528 99.7262C43.871 99.9306 44.1445 99.9946 44.3079 100.001C44.4398 100.007 44.4832 99.9772 44.5164 99.9491C44.5749 99.8998 44.6873 99.7662 44.8037 99.4392C44.8667 99.2527 44.8717 99.1442 44.8628 99.07C44.854 98.9972 44.8228 98.8828 44.6983 98.6993C44.4178 98.2856 43.8092 97.7211 42.5852 96.7997L40.6177 95.3414L37.8 95.271C36.6848 95.2581 35.8789 95.2718 35.2913 95.3172C34.6838 95.3642 34.4029 95.4398 34.2802 95.4955Z" stroke="black" stroke-width="2"/>
<path d="M24.7304 115.415L24.713 115.42L24.6955 115.424C24.3063 115.514 23.6644 115.911 22.7961 116.779L22.7962 116.779L22.7878 116.788C22.2383 117.324 21.9629 117.649 21.787 117.945C21.6208 118.224 21.5119 118.53 21.3912 119.085L21.3912 119.085L21.3899 119.091C20.6841 122.245 22.7287 125.049 25.9465 125.336L25.9465 125.336L25.9508 125.336C29.9117 125.706 32.6829 121.621 30.8782 118.011L30.8765 118.008C29.7431 115.719 27.42 114.692 24.7304 115.415ZM27.7697 117.468C30.681 119.019 29.7805 123.484 26.3289 123.484C25.8962 123.484 25.4606 123.426 25.028 123.204C24.6138 122.991 24.2904 122.673 23.9948 122.319C23.5322 121.778 23.1836 121.168 23.1127 120.476C23.0392 119.758 23.2808 119.114 23.6832 118.553C24.6353 117.215 26.291 116.671 27.7697 117.468Z" stroke="black" stroke-width="2"/>
<path d="M104.149 115.412L104.147 115.413C102.037 116.198 100.896 117.727 100.765 119.825L100.765 119.825L100.765 119.834C100.693 120.835 100.788 121.599 101.027 122.238C101.265 122.872 101.671 123.451 102.326 124.049L102.326 124.049L102.331 124.054C105.572 127.055 110.73 124.804 110.754 120.31C110.754 119.524 110.664 118.945 110.485 118.443C110.306 117.943 110.018 117.462 109.547 116.896C108.97 116.206 108.056 115.659 107.028 115.378C105.998 115.096 104.956 115.109 104.149 115.412ZM108.136 118.188L108.147 118.2L108.157 118.213C108.706 118.884 108.899 119.763 108.842 120.542C108.785 121.316 108.467 122.173 107.764 122.723C106.755 123.511 105.497 123.628 104.476 123.211C103.445 122.789 102.641 121.808 102.641 120.495C102.641 119.126 103.129 117.912 104.369 117.379C105.026 117.093 105.765 117.084 106.395 117.222C107.022 117.358 107.682 117.67 108.136 118.188Z" stroke="black" stroke-width="2"/>
<path d="M57.6907 31.3284L57.6907 31.3285L57.6805 31.3356C57.2045 31.6689 57.0889 32.1655 57.1728 32.4468C57.1821 32.4609 57.2141 32.5106 57.2888 32.6007C57.3946 32.7283 57.5451 32.8881 57.7365 33.0732C58.1179 33.4422 58.6169 33.8686 59.1384 34.2751C59.6602 34.6818 60.1846 35.0531 60.6136 35.3171C60.8295 35.45 61.0042 35.5452 61.132 35.6037C61.1564 35.6148 61.1766 35.6235 61.1931 35.6303C61.2914 35.6024 61.4896 35.5117 61.7136 35.2818C61.9675 35.0213 62.0578 34.7825 62.0721 34.6785C62.0639 34.6547 62.0386 34.5857 61.9662 34.4643C61.8502 34.2696 61.6595 34.0174 61.3848 33.7174C60.8374 33.1198 60.0293 32.4116 59.0344 31.6938L59.0334 31.693C58.7378 31.4792 58.5207 31.3373 58.3504 31.2453C58.1809 31.1537 58.0974 31.1336 58.0673 31.1291C58.0667 31.129 58.0661 31.1289 58.0655 31.1288C58.0537 31.127 58.046 31.1258 58.0142 31.137C57.9623 31.1555 57.865 31.2031 57.6907 31.3284Z" stroke="black" stroke-width="2"/>
<path d="M102.623 35.2499C103.15 34.8752 103.883 34.2383 104.993 33.194C105.6 32.6109 105.754 32.26 105.778 32.0886C105.79 32.0041 105.795 31.8249 105.429 31.4684L105.429 31.4685L105.42 31.4591C105.131 31.1707 104.996 31.1373 104.961 31.1318C104.936 31.128 104.813 31.113 104.483 31.3028C104.398 31.3527 104.123 31.5526 103.703 31.8888C103.304 32.2088 102.826 32.6101 102.368 33.0173L102.368 33.0173L102.363 33.0217C101.601 33.6905 101.261 34.0281 101.095 34.2612C100.995 34.4003 100.977 34.4594 100.977 34.6777C100.977 35.2606 101.402 35.6406 101.861 35.6406C101.899 35.6406 102.087 35.6309 102.623 35.2499Z" stroke="black" stroke-width="2"/>
<path d="M65.7565 38.513L65.7447 38.5252L65.7325 38.537C65.4707 38.7904 65.4147 38.9916 65.412 39.1132C65.4093 39.2325 65.4544 39.4305 65.7033 39.6878L65.7243 39.7095L65.744 39.7324C65.7439 39.7323 65.744 39.7324 65.7441 39.7325C65.7454 39.7339 65.7552 39.7449 65.7779 39.7681C65.8015 39.7922 65.833 39.8233 65.8732 39.862C65.9539 39.9395 66.0602 40.0382 66.1912 40.1571C66.4529 40.3946 66.7992 40.7 67.2075 41.0546C68.0226 41.7625 69.0706 42.6544 70.1543 43.5683C71.8655 44.9899 72.845 45.7788 73.4898 46.2167C74.1026 46.633 74.2727 46.6329 74.3764 46.6328L74.3804 46.6328C75.0446 46.6328 75.382 46.1064 75.2768 45.6417C75.2379 45.5967 75.1823 45.5358 75.1076 45.4578C74.9207 45.2624 74.6526 44.9997 74.3191 44.6847C73.6545 44.057 72.7623 43.2521 71.814 42.4209C69.8976 40.7412 67.8314 39.0243 66.9633 38.4374L66.955 38.4318L66.9467 38.426C66.6416 38.2105 66.4334 38.179 66.307 38.1898C66.1834 38.2005 65.9973 38.2635 65.7565 38.513ZM75.3344 45.713C75.3348 45.7131 75.332 45.709 75.3251 45.7001C75.3307 45.7084 75.3341 45.7128 75.3344 45.713Z" stroke="black" stroke-width="2"/>
<path d="M87.7411 45.3897C87.5941 45.5739 87.5649 45.8338 87.7286 46.1235C87.896 46.4199 88.2149 46.6328 88.5918 46.6328C88.6973 46.6328 88.863 46.6322 89.4099 46.2695C89.9856 45.8876 90.8445 45.1998 92.3192 43.9621L87.7411 45.3897ZM87.7411 45.3897C87.7411 45.3897 87.7411 45.3897 87.7411 45.3897C87.7414 45.39 87.7612 45.3685 87.8157 45.316C87.8839 45.2503 87.98 45.1609 88.1038 45.0482C88.3506 44.8237 88.6908 44.5221 89.1025 44.1625C89.9245 43.4444 91.0186 42.5066 92.1927 41.5151C93.8846 40.0986 94.9605 39.2279 95.6856 38.7113C96.0482 38.453 96.2904 38.307 96.4552 38.2276C96.549 38.1824 96.5987 38.1681 96.6151 38.1642C97.0234 38.172 97.4063 38.5044 97.4063 39.0746C97.4063 39.2559 97.3908 39.307 97.3629 39.3671C97.3188 39.4618 97.2045 39.642 96.8689 39.9897C96.1886 40.6945 94.8802 41.8104 92.3196 43.9618L87.7411 45.3897Z" stroke="black" stroke-width="2"/>
<path d="M49.9865 42.1124L49.9809 42.1184L49.9753 42.1242C49.6237 42.4888 49.6265 42.9174 49.8931 43.2454C49.9067 43.2555 49.94 43.28 50.0019 43.3187C50.1193 43.3922 50.2855 43.4841 50.4964 43.59C50.9159 43.8007 51.4587 44.0403 52.0253 44.2673C52.5912 44.4939 53.1637 44.7011 53.6405 44.8498C53.8793 44.9243 54.0841 44.9809 54.2462 45.018C54.3549 45.0429 54.4234 45.0539 54.4592 45.0588C54.4766 45.0514 54.5052 45.0377 54.5456 45.0131C54.6521 44.9482 54.7822 44.8419 54.9101 44.7035C55.0373 44.5657 55.1394 44.421 55.2047 44.2962C55.2574 44.1953 55.2677 44.1433 55.2694 44.1382C55.2673 43.9402 55.2162 43.781 54.952 43.5569C54.6199 43.2752 54.0089 42.9509 52.9171 42.5528L52.9171 42.5528L52.9086 42.5496C51.6375 42.0729 50.9609 41.8912 50.5463 41.873C50.3685 41.8651 50.2838 41.891 50.2372 41.9114C50.1863 41.9336 50.1092 41.9809 49.9865 42.1124Z" stroke="black" stroke-width="2"/>
<path d="M109.879 42.5762L109.879 42.5762C111.19 42.0862 111.89 41.8992 112.327 41.8831C112.515 41.8761 112.616 41.9039 112.683 41.9331C112.755 41.965 112.853 42.0277 112.999 42.1782L113.01 42.1904L113.023 42.2023C113.29 42.4599 113.339 42.566 113.346 42.5861C113.346 42.586 113.346 42.5859 113.346 42.5859C113.346 42.5857 113.346 42.5858 113.346 42.5861C113.347 42.5928 113.358 42.704 113.174 43.133M109.879 42.5762L107.095 42.8695C107.278 42.634 108.378 42.0582 109.529 41.6395C112.12 40.6711 112.905 40.6449 113.717 41.4824C114.45 42.1891 114.502 42.5816 114.083 43.55M109.879 42.5762L109.871 42.5792C109.334 42.7746 108.809 43.0068 108.404 43.2136C108.201 43.3174 108.04 43.4087 107.929 43.4799C107.902 43.4969 107.881 43.5109 107.865 43.522C107.819 43.6234 107.776 43.8231 107.829 44.1072C107.893 44.4428 108.057 44.6975 108.215 44.8145L107.619 45.6176L108.214 44.814C108.384 44.9396 108.47 44.9958 108.508 45.0189M109.879 42.5762L108.508 45.0189M113.174 43.133C113.175 43.1312 113.175 43.1303 113.175 43.1303C113.175 43.1303 113.175 43.1305 113.175 43.1309L114.083 43.55M113.174 43.133C113.171 43.1396 113.168 43.1463 113.165 43.1531L114.083 43.55M113.174 43.133C113.167 43.145 113.133 43.1965 113.028 43.2826C112.901 43.3875 112.7 43.5179 112.396 43.6714C111.784 43.9801 110.867 44.3267 109.548 44.7406M114.083 43.55C113.769 44.2305 112.513 44.8586 109.843 45.6961M109.843 45.6961L109.553 44.7392C109.551 44.7397 109.55 44.7401 109.548 44.7406M109.843 45.6961L109.544 44.7419C109.545 44.7415 109.547 44.741 109.548 44.7406M109.843 45.6961L108.508 45.0189M109.548 44.7406C109.177 44.8533 108.928 44.9274 108.739 44.9738C108.647 44.9963 108.584 45.0086 108.539 45.015C108.527 45.0168 108.516 45.018 108.508 45.0189M108.508 45.0189C108.526 45.0295 108.533 45.0331 108.533 45.0332C108.532 45.0333 108.508 45.0215 108.481 45.0206L108.481 45.0206C108.481 45.0206 108.489 45.0208 108.508 45.0189Z" stroke="black" stroke-width="2"/>
<path d="M60.1973 45.7724L60.1899 45.7804L60.1823 45.7883C60.0207 45.9558 59.9101 46.2228 59.899 46.5016C59.889 46.752 59.9591 46.8887 60.0007 46.9414C60.0118 46.9477 60.0267 46.956 60.0459 46.9663C60.1253 47.0088 60.2412 47.0655 60.3959 47.1363C60.7037 47.2771 61.1241 47.4547 61.6276 47.6578C62.6323 48.063 63.9324 48.5551 65.2471 49.0318C66.5618 49.5086 67.8816 49.9665 68.9254 50.3041C69.4484 50.4732 69.8936 50.6094 70.2305 50.7022C70.3996 50.7488 70.5319 50.7818 70.628 50.8024C70.675 50.8124 70.7036 50.8174 70.7176 50.8196C70.9518 50.8079 71.2057 50.646 71.3567 50.2991C71.4986 49.9731 71.4701 49.6569 71.3344 49.4426C71.2657 49.402 71.1607 49.3459 71.0152 49.2742C70.7207 49.1293 70.312 48.9463 69.8163 48.7365C68.828 48.3183 67.5388 47.8127 66.2256 47.3235C64.9126 46.8343 63.5868 46.3658 62.5262 46.021C61.9948 45.8483 61.5392 45.7096 61.1893 45.6152C60.8853 45.5332 60.7305 45.5048 60.6819 45.4959C60.679 45.4953 60.6764 45.4949 60.6743 45.4945C60.6689 45.4957 60.6622 45.4975 60.6541 45.4998C60.6142 45.5112 60.5595 45.5316 60.4965 45.5627C60.3622 45.6288 60.2537 45.7112 60.1973 45.7724ZM71.3881 49.4761C71.3916 49.4788 71.3936 49.4802 71.3937 49.4802C71.3938 49.4802 71.392 49.4788 71.3881 49.4761Z" stroke="black" stroke-width="2"/>
<path d="M91.6807 49.3986C91.6702 49.4048 91.6614 49.4102 91.6541 49.4148C91.4646 49.6265 91.4115 49.9477 91.5489 50.2836C91.6846 50.6152 91.9385 50.7988 92.2074 50.8185C92.2172 50.8165 92.2292 50.8139 92.2438 50.8105C92.3207 50.793 92.4311 50.7644 92.5764 50.7236C92.8654 50.6424 93.2559 50.5231 93.7217 50.3745C94.6511 50.0779 95.8511 49.6736 97.0761 49.2468C98.3009 48.8201 99.5444 48.373 100.561 47.9914C101.604 47.5995 102.341 47.3008 102.603 47.1643L102.603 47.1643L102.61 47.161C103.032 46.9455 103.13 46.7286 103.152 46.6124C103.177 46.4831 103.158 46.2077 102.83 45.7929L102.83 45.7923C102.688 45.6124 102.609 45.5649 102.576 45.549C102.551 45.5366 102.485 45.5093 102.297 45.5174L102.281 45.5181C102.273 45.5193 102.243 45.5235 102.182 45.536C102.087 45.5553 101.957 45.5865 101.791 45.6309C101.461 45.7192 101.023 45.8498 100.505 46.0145C99.4713 46.343 98.1501 46.7962 96.785 47.2902C95.4367 47.7829 94.1516 48.2868 93.1764 48.7006C92.6873 48.9081 92.2864 49.0887 91.9983 49.2309C91.8532 49.3025 91.7487 49.3585 91.6807 49.3986ZM91.6292 49.4308C91.6264 49.4327 91.6251 49.4337 91.6252 49.4337C91.6252 49.4337 91.6267 49.4327 91.6292 49.4308Z" stroke="black" stroke-width="2"/>
<path d="M68.3679 95.3721L68.3448 95.3779L68.3215 95.3825C68.1508 95.4167 67.914 95.5983 67.806 96.0039C67.6989 96.4062 67.8 96.7452 67.9688 96.914C68.041 96.9862 68.0682 97.0005 68.0825 97.0077C68.1025 97.0177 68.1648 97.0452 68.3331 97.0711C68.7085 97.1289 69.3412 97.1445 70.6117 97.1445H73.4121H73.7395L74.0035 97.3381L75.9627 98.7749C75.9633 98.7753 75.9639 98.7758 75.9646 98.7763C76.5641 99.2116 77.0546 99.5232 77.4573 99.7286C77.8678 99.938 78.1313 100.008 78.2877 100.02C78.4111 100.029 78.4455 100.004 78.4716 99.9837C78.5257 99.9421 78.6382 99.8221 78.7718 99.5097C78.8717 99.2692 78.8897 99.1374 78.8876 99.0589C78.8859 98.9961 78.8705 98.9039 78.7696 98.7443C78.5233 98.3548 77.9378 97.8096 76.66 96.8513C76.6598 96.8511 76.6596 96.8509 76.6594 96.8508L74.6427 95.3441L71.8335 95.2973C70.9762 95.2973 70.138 95.3039 69.4779 95.3199C69.146 95.3279 68.8662 95.3382 68.6547 95.3507C68.5004 95.3599 68.4162 95.3686 68.3814 95.3723C68.3602 95.3745 68.3573 95.3748 68.3679 95.3721Z" stroke="black" stroke-width="2"/>
</g>
<defs>
<clipPath id="clip0_3_60">
<rect width="134" height="134" fill="white"/>
</clipPath>
</defs>
</svg>
