<svg width="152" height="152" viewBox="0 0 152 152" fill="none" xmlns="http://www.w3.org/2000/svg">
<g clip-path="url(#clip0_3_78)">
<path d="M107.813 6.06794L107.812 6.06842L105.942 7.40435L105.41 7.78437L104.849 7.44944L103.156 6.44009L103.149 6.43571C99.6064 4.28166 96.8792 3.55312 92.4766 3.55312C87.711 3.55312 84.0062 4.81534 80.2019 7.73948C80.2018 7.73956 80.2017 7.73964 80.2016 7.73971L78.3916 9.13432L78.011 9.42754L77.5443 9.3137L75.1099 8.71995L75.1024 8.71811L75.0949 8.71616C72.3983 8.01393 70.7437 7.98631 68.0435 8.54854C64.9502 9.21793 62.807 10.3937 60.3853 12.8429C59.7999 13.4428 59.206 14.1155 58.7258 14.7131C58.225 15.3363 57.9163 15.7943 57.8235 15.995L57.2922 17.2051L57.0265 17.8102L56.3657 17.8031L53.6397 17.7734C52.4707 17.7735 51.8109 17.8049 51.279 17.9019C50.7719 17.9944 50.3425 18.1537 49.6468 18.4802L49.6441 18.4815C47.6485 19.4109 45.9052 21.0441 45.101 22.6497C44.9331 22.9927 44.7784 23.3007 44.6222 23.554C44.4614 23.8148 44.2672 24.0718 43.9963 24.2813C43.4678 24.69 42.8245 24.7629 42.2433 24.8289L42.216 24.832C39.1277 25.2239 36.9049 27.6158 36.8027 30.371C36.7881 30.9774 36.8204 31.21 36.8594 31.3269L36.86 31.3288C36.8756 31.3755 36.8958 31.4364 37.1106 31.6082L37.2498 31.7196L37.342 31.8722C38.2438 33.3659 40.1004 35.4335 42.6746 36.6852C45.2086 37.9174 48.4596 38.3743 52.2888 36.6707L52.6036 36.5307L52.9378 36.6142C53.9141 36.8583 55.7031 36.5806 57.5352 35.6792C58.3144 35.2896 58.9279 34.9885 59.4238 34.8893C59.7218 34.8297 60.0314 34.8276 60.3497 34.9305C60.6362 35.0231 60.859 35.1799 61.018 35.3029C62.8658 36.6699 64.3115 37.5384 65.7288 38.093C67.1373 38.6441 68.5677 38.9046 70.4058 38.9901L70.415 38.9906L70.4242 38.9912C72.6036 39.1327 73.4733 39.0238 75.2335 38.5489C75.2339 38.5488 75.2344 38.5487 75.2348 38.5486L77.5181 37.9259L78.0155 37.7902L78.4145 38.1167L80.0426 39.4488C80.0434 39.4494 80.0441 39.45 80.0448 39.4506C82.0802 41.0947 85.7297 42.8109 88.5013 43.4349C89.7626 43.6942 91.604 43.8051 93.438 43.7579C95.2864 43.7105 97.0041 43.5055 98.0309 43.1895L98.0338 43.1886L99.3995 42.773L100.072 42.5684L100.492 43.1317L101.887 45.002L101.893 45.0098C105.763 50.3021 112.175 54.1559 119.342 55.4516C120.82 55.7139 122.965 55.7694 125.167 55.6309C127.367 55.4924 129.531 55.166 131.048 54.7069L131.055 54.7047C146.448 50.1758 154.692 33.9656 149.279 18.9549C146.678 11.7825 140.219 5.32266 133.046 2.72184C128.481 1.08563 123.464 0.631424 119.017 1.42929C114.785 2.207 111.126 3.69788 107.813 6.06794Z" stroke="black" stroke-width="2"/>
<mask id="path-2-inside-1_3_78" fill="white">
<path d="M32.3297 40.7016C31.8844 40.8797 31.3797 41.3547 31.2312 41.8C30.9937 42.3938 29.3312 106.905 29.3906 113.466V114.297H19.7719H10.1531L8.57966 115.128C4.72029 117.117 3.62185 122.045 6.26404 125.341L7.12498 126.439V136.978V147.547H4.30466C1.69216 147.547 1.39529 147.606 0.742163 148.289C-0.207837 149.209 -0.207837 150.338 0.742163 151.258L1.45466 152H76H150.545L151.258 151.258C152.208 150.338 152.208 149.209 151.258 148.289C150.575 147.577 150.397 147.547 146.508 147.547H142.5V132.228V116.939L143.361 115.841C146.003 112.545 144.875 107.558 141.045 105.598L139.412 104.797H131.456C125.341 104.797 123.441 104.708 123.352 104.411C123.292 104.233 122.758 96.0391 122.164 86.2422C121.006 67.3016 121.006 67.3609 119.462 66.7969C118.423 66.3813 109.844 66.4109 108.686 66.8266C108.181 67.0047 107.617 67.4203 107.439 67.7469C107.261 68.0734 106.608 76.5047 105.955 86.5094C105.331 96.4844 104.827 104.678 104.797 104.708C104.797 104.767 103.609 104.797 102.125 104.797C99.839 104.797 99.4531 104.738 99.4531 104.322C99.4531 103.342 97.375 70.1813 97.2562 69.0531C97.1969 68.4297 96.8406 67.6281 96.4844 67.2719C95.9203 66.6781 95.564 66.6484 90.25 66.6484C84.9062 66.6484 84.6094 66.6781 83.9859 67.2719C83.3922 67.8953 83.3031 68.7266 82.2047 85.975C81.5812 95.9203 81.0765 104.233 81.0469 104.411C81.0469 104.708 80.3047 104.797 78.375 104.797C76.0297 104.797 75.7031 104.738 75.7031 104.263C75.6734 103.995 75.1687 95.7125 74.5453 85.8563C73.4469 68.6375 73.3875 67.925 72.764 67.3016C72.1406 66.6781 71.8734 66.6484 66.5 66.6484C61.0672 66.6484 60.8594 66.6781 60.2062 67.3016C59.5531 67.9547 59.5234 68.4891 58.425 85.4109C57.8312 95.0297 57.3265 103.313 57.3265 103.817L57.2969 104.797H54.1797H51.0625V103.966C51.0328 103.52 50.7359 89.4484 50.35 72.7047C49.8453 50.8547 49.5484 42.0672 49.3109 41.5922C49.1031 41.2359 48.6281 40.8203 48.2125 40.6719C47.2328 40.2859 33.339 40.3453 32.3297 40.7016ZM45.2437 45.4813C45.3031 45.8672 45.6 57.1188 45.8375 70.5078C46.1047 83.8969 46.4015 97.0781 46.5203 99.8094L46.6984 104.797H43.9672C42.2453 104.797 40.85 104.945 40.1969 105.242C36.8125 106.667 35.0609 110.141 36.0406 113.525C36.3078 114.416 36.8422 115.544 37.2578 116.019L38 116.909V132.228V147.547H35.5062H33.0422L33.1609 143.598C33.25 140.333 35.3281 46.7281 35.3281 45.3031C35.3281 44.8875 35.9812 44.8281 40.2265 44.8281C45.0656 44.8281 45.125 44.8281 45.2437 45.4813ZM69.1719 71.1906C69.1719 71.8141 70.9531 100.463 71.1312 102.481L71.3094 104.797H66.5297C63.0859 104.797 61.75 104.708 61.75 104.441C61.75 103.728 63.5312 75.1688 63.7094 73.0906L63.8875 70.9531H66.5297C67.9844 70.9531 69.1719 71.0719 69.1719 71.1906ZM93.0406 73.0906C93.2484 75.4953 95 103.402 95 104.263C95 104.767 94.6437 104.797 90.25 104.797C87.6375 104.797 85.5 104.767 85.5 104.708C85.5 104.678 85.975 97.2266 86.539 88.1719C87.1031 79.1172 87.5781 71.5469 87.5781 71.3391C87.5781 71.0422 88.2906 70.9531 90.2203 70.9531H92.8625L93.0406 73.0906ZM116.791 72.2C116.939 73.4766 118.75 102.897 118.75 104.114C118.75 104.797 118.72 104.797 114 104.797H109.22L109.398 103.075C109.487 102.155 109.962 94.7031 110.467 86.5391C110.942 78.375 111.417 71.5172 111.477 71.3094C111.566 71.0719 112.367 70.9531 114.119 70.9531H116.642L116.791 72.2ZM139.472 109.844C140.333 110.645 140.57 111.714 140.066 112.694C139.472 113.97 138.522 114.297 135.256 114.297C132.644 114.297 132.228 114.356 131.605 114.95C130.773 115.722 130.714 116.939 131.486 117.889C131.991 118.542 132.317 118.602 135.048 118.691L138.047 118.809V133.178V147.547H90.25H42.4531V133.148V118.75H83.125C112.694 118.75 123.975 118.661 124.509 118.423C126.023 117.741 126.142 115.366 124.717 114.623C124.302 114.386 111.506 114.297 83.3031 114.297C52.2797 114.297 42.3047 114.208 41.7109 113.941C40.7312 113.495 39.989 112.1 40.2562 111.239C40.3453 110.883 40.7312 110.289 41.0578 109.903L41.6515 109.25H90.25C138.641 109.25 138.819 109.25 139.472 109.844ZM29.1531 121.273L29.064 123.797H24.7594C20.5734 123.797 20.425 123.827 19.7422 124.539C18.9109 125.341 18.8515 125.786 19.3265 126.855C19.8609 128.013 20.8109 128.25 25.0859 128.25H29.064L28.9156 135.731C28.8265 139.858 28.7078 144.222 28.6187 145.38L28.4406 147.547H20.0094H11.5781V137.958V128.369L12.5281 127.923C14.725 126.973 14.2797 124.598 11.7562 123.797C9.55935 123.084 8.7281 121.719 9.55935 120.145C10.2719 118.78 10.3609 118.78 20.039 118.75H29.2422L29.1531 121.273Z"/>
</mask>
<path d="M32.3297 40.7016C31.8844 40.8797 31.3797 41.3547 31.2312 41.8C30.9937 42.3938 29.3312 106.905 29.3906 113.466V114.297H19.7719H10.1531L8.57966 115.128C4.72029 117.117 3.62185 122.045 6.26404 125.341L7.12498 126.439V136.978V147.547H4.30466C1.69216 147.547 1.39529 147.606 0.742163 148.289C-0.207837 149.209 -0.207837 150.338 0.742163 151.258L1.45466 152H76H150.545L151.258 151.258C152.208 150.338 152.208 149.209 151.258 148.289C150.575 147.577 150.397 147.547 146.508 147.547H142.5V132.228V116.939L143.361 115.841C146.003 112.545 144.875 107.558 141.045 105.598L139.412 104.797H131.456C125.341 104.797 123.441 104.708 123.352 104.411C123.292 104.233 122.758 96.0391 122.164 86.2422C121.006 67.3016 121.006 67.3609 119.462 66.7969C118.423 66.3813 109.844 66.4109 108.686 66.8266C108.181 67.0047 107.617 67.4203 107.439 67.7469C107.261 68.0734 106.608 76.5047 105.955 86.5094C105.331 96.4844 104.827 104.678 104.797 104.708C104.797 104.767 103.609 104.797 102.125 104.797C99.839 104.797 99.4531 104.738 99.4531 104.322C99.4531 103.342 97.375 70.1813 97.2562 69.0531C97.1969 68.4297 96.8406 67.6281 96.4844 67.2719C95.9203 66.6781 95.564 66.6484 90.25 66.6484C84.9062 66.6484 84.6094 66.6781 83.9859 67.2719C83.3922 67.8953 83.3031 68.7266 82.2047 85.975C81.5812 95.9203 81.0765 104.233 81.0469 104.411C81.0469 104.708 80.3047 104.797 78.375 104.797C76.0297 104.797 75.7031 104.738 75.7031 104.263C75.6734 103.995 75.1687 95.7125 74.5453 85.8563C73.4469 68.6375 73.3875 67.925 72.764 67.3016C72.1406 66.6781 71.8734 66.6484 66.5 66.6484C61.0672 66.6484 60.8594 66.6781 60.2062 67.3016C59.5531 67.9547 59.5234 68.4891 58.425 85.4109C57.8312 95.0297 57.3265 103.313 57.3265 103.817L57.2969 104.797H54.1797H51.0625V103.966C51.0328 103.52 50.7359 89.4484 50.35 72.7047C49.8453 50.8547 49.5484 42.0672 49.3109 41.5922C49.1031 41.2359 48.6281 40.8203 48.2125 40.6719C47.2328 40.2859 33.339 40.3453 32.3297 40.7016ZM45.2437 45.4813C45.3031 45.8672 45.6 57.1188 45.8375 70.5078C46.1047 83.8969 46.4015 97.0781 46.5203 99.8094L46.6984 104.797H43.9672C42.2453 104.797 40.85 104.945 40.1969 105.242C36.8125 106.667 35.0609 110.141 36.0406 113.525C36.3078 114.416 36.8422 115.544 37.2578 116.019L38 116.909V132.228V147.547H35.5062H33.0422L33.1609 143.598C33.25 140.333 35.3281 46.7281 35.3281 45.3031C35.3281 44.8875 35.9812 44.8281 40.2265 44.8281C45.0656 44.8281 45.125 44.8281 45.2437 45.4813ZM69.1719 71.1906C69.1719 71.8141 70.9531 100.463 71.1312 102.481L71.3094 104.797H66.5297C63.0859 104.797 61.75 104.708 61.75 104.441C61.75 103.728 63.5312 75.1688 63.7094 73.0906L63.8875 70.9531H66.5297C67.9844 70.9531 69.1719 71.0719 69.1719 71.1906ZM93.0406 73.0906C93.2484 75.4953 95 103.402 95 104.263C95 104.767 94.6437 104.797 90.25 104.797C87.6375 104.797 85.5 104.767 85.5 104.708C85.5 104.678 85.975 97.2266 86.539 88.1719C87.1031 79.1172 87.5781 71.5469 87.5781 71.3391C87.5781 71.0422 88.2906 70.9531 90.2203 70.9531H92.8625L93.0406 73.0906ZM116.791 72.2C116.939 73.4766 118.75 102.897 118.75 104.114C118.75 104.797 118.72 104.797 114 104.797H109.22L109.398 103.075C109.487 102.155 109.962 94.7031 110.467 86.5391C110.942 78.375 111.417 71.5172 111.477 71.3094C111.566 71.0719 112.367 70.9531 114.119 70.9531H116.642L116.791 72.2ZM139.472 109.844C140.333 110.645 140.57 111.714 140.066 112.694C139.472 113.97 138.522 114.297 135.256 114.297C132.644 114.297 132.228 114.356 131.605 114.95C130.773 115.722 130.714 116.939 131.486 117.889C131.991 118.542 132.317 118.602 135.048 118.691L138.047 118.809V133.178V147.547H90.25H42.4531V133.148V118.75H83.125C112.694 118.75 123.975 118.661 124.509 118.423C126.023 117.741 126.142 115.366 124.717 114.623C124.302 114.386 111.506 114.297 83.3031 114.297C52.2797 114.297 42.3047 114.208 41.7109 113.941C40.7312 113.495 39.989 112.1 40.2562 111.239C40.3453 110.883 40.7312 110.289 41.0578 109.903L41.6515 109.25H90.25C138.641 109.25 138.819 109.25 139.472 109.844ZM29.1531 121.273L29.064 123.797H24.7594C20.5734 123.797 20.425 123.827 19.7422 124.539C18.9109 125.341 18.8515 125.786 19.3265 126.855C19.8609 128.013 20.8109 128.25 25.0859 128.25H29.064L28.9156 135.731C28.8265 139.858 28.7078 144.222 28.6187 145.38L28.4406 147.547H20.0094H11.5781V137.958V128.369L12.5281 127.923C14.725 126.973 14.2797 124.598 11.7562 123.797C9.55935 123.084 8.7281 121.719 9.55935 120.145C10.2719 118.78 10.3609 118.78 20.039 118.75H29.2422L29.1531 121.273Z" stroke="black" stroke-width="4" mask="url(#path-2-inside-1_3_78)"/>
<path d="M56.4044 131.763L56.4044 131.763L56.4064 131.764C56.9105 131.994 57.0312 131.983 57.0608 131.979C57.1029 131.973 57.2331 131.942 57.6878 131.591C57.8811 131.436 57.9202 131.394 57.939 131.369C57.9422 131.365 57.9459 131.36 57.9521 131.345C57.9597 131.326 57.9739 131.286 57.9894 131.207C58.0656 130.82 58.0781 130.103 58.0781 128.398C58.0781 126.806 58.0602 126.042 57.9875 125.599C57.9553 125.404 57.9208 125.333 57.9056 125.306C57.8894 125.277 57.8594 125.233 57.7426 125.122C57.3248 124.742 56.649 124.732 56.3203 124.956C56.1729 125.075 55.9934 125.313 55.8527 125.855C55.7059 126.421 55.625 127.229 55.625 128.369C55.625 129.665 55.7226 130.504 55.8936 131.043C56.0513 131.54 56.2376 131.687 56.4044 131.763Z" stroke="black" stroke-width="2"/>
<path d="M65.1829 129.266L65.183 129.266L65.1834 129.275C65.2296 130.338 65.2747 130.782 65.355 131.042C65.3984 131.183 65.4373 131.261 65.7478 131.522L65.7479 131.522L65.7536 131.527C66.2075 131.914 66.4053 131.953 66.4797 131.956C66.5466 131.958 66.7348 131.939 67.1886 131.59C67.3811 131.436 67.4202 131.394 67.439 131.369C67.4421 131.365 67.4458 131.36 67.4521 131.345C67.4597 131.326 67.4739 131.286 67.4893 131.207C67.5656 130.82 67.5781 130.103 67.5781 128.398C67.5781 126.806 67.5601 126.041 67.4874 125.599C67.4553 125.404 67.4207 125.333 67.4055 125.306C67.3896 125.278 67.3603 125.235 67.2483 125.127C66.7539 124.695 66.0635 124.757 65.7524 125.068C65.5596 125.261 65.3706 125.585 65.2551 126.253C65.1371 126.935 65.1099 127.893 65.1829 129.266Z" stroke="black" stroke-width="2"/>
<path d="M74.7107 129.594L74.7108 129.594L74.7115 129.604C74.7717 130.447 74.8342 130.835 74.9186 131.07C74.9753 131.228 75.044 131.334 75.3009 131.546L75.3233 131.565L75.3445 131.584C75.4714 131.702 75.649 131.822 75.8237 131.909C75.8941 131.944 75.9542 131.969 76 131.985C76.0458 131.969 76.1058 131.944 76.1762 131.909C76.351 131.822 76.5285 131.702 76.6555 131.584L76.6767 131.565L76.699 131.546C76.9559 131.334 77.0247 131.228 77.0813 131.07C77.1658 130.835 77.2282 130.447 77.2884 129.604L77.2884 129.604L77.2894 129.592C77.4491 127.676 77.3215 126.392 77.024 125.63C76.8814 125.264 76.7192 125.069 76.579 124.964C76.4481 124.866 76.2728 124.797 76 124.797C75.9243 124.797 75.7613 124.825 75.5683 124.9C75.479 124.934 75.4006 124.973 75.3393 125.009C75.2822 125.042 75.2565 125.065 75.2527 125.068C75.2522 125.068 75.2521 125.068 75.2524 125.068C75.1322 125.188 74.9105 125.605 74.7724 126.483C74.6429 127.306 74.6115 128.375 74.7107 129.594Z" stroke="black" stroke-width="2"/>
<path d="M86.2464 131.527L86.2463 131.527L86.2521 131.522C86.5627 131.261 86.6016 131.183 86.645 131.042C86.7253 130.782 86.7704 130.338 86.8166 129.275L86.8165 129.275L86.817 129.266C86.8901 127.893 86.8629 126.935 86.7449 126.253C86.6293 125.585 86.4404 125.261 86.2476 125.068C85.9365 124.757 85.246 124.695 84.7517 125.127C84.6396 125.235 84.6104 125.278 84.5944 125.306C84.5792 125.333 84.5447 125.404 84.5125 125.599C84.4398 126.041 84.4219 126.806 84.4219 128.398C84.4219 130.103 84.4344 130.82 84.5106 131.207C84.5261 131.286 84.5403 131.326 84.5479 131.345C84.5541 131.36 84.5578 131.365 84.561 131.369C84.5797 131.394 84.6188 131.436 84.8114 131.59C85.2651 131.939 85.4533 131.958 85.5203 131.956C85.5946 131.953 85.7925 131.914 86.2464 131.527Z" stroke="black" stroke-width="2"/>
<path d="M96.1057 125.645C95.9259 125.146 95.5968 124.896 95.2913 124.816C94.9896 124.737 94.6125 124.796 94.2586 125.12C94.1408 125.233 94.1107 125.277 94.0944 125.306C94.0792 125.333 94.0447 125.404 94.0125 125.599C93.9398 126.042 93.9219 126.806 93.9219 128.398C93.9219 130.103 93.9344 130.82 94.0106 131.207C94.0261 131.286 94.0403 131.326 94.0479 131.345C94.0541 131.36 94.0578 131.365 94.061 131.369C94.08 131.395 94.1198 131.437 94.3184 131.596C94.4886 131.732 94.678 131.852 94.836 131.934C94.8884 131.961 94.9313 131.981 94.9638 131.994C95.13 131.972 95.365 131.887 95.6093 131.712C95.8907 131.51 96.0676 131.274 96.133 131.099C96.19 130.922 96.2532 130.57 96.2987 130.061C96.3433 129.562 96.3657 128.976 96.3639 128.383C96.3621 127.789 96.3362 127.203 96.2874 126.702C96.2369 126.183 96.168 125.824 96.1057 125.645Z" stroke="black" stroke-width="2"/>
<path d="M103.811 125.157L103.805 125.163L103.799 125.169C103.68 125.295 103.636 125.358 103.609 125.41C103.582 125.461 103.545 125.551 103.513 125.75C103.44 126.198 103.422 126.942 103.422 128.458C103.422 130.133 103.435 130.834 103.51 131.212C103.525 131.288 103.539 131.327 103.546 131.344C103.552 131.358 103.556 131.363 103.559 131.368C103.579 131.394 103.62 131.437 103.818 131.596C103.989 131.732 104.178 131.852 104.336 131.934C104.388 131.961 104.431 131.981 104.464 131.994C104.63 131.972 104.865 131.887 105.109 131.712C105.391 131.51 105.568 131.273 105.633 131.099C105.704 130.879 105.775 130.474 105.821 129.916C105.867 129.368 105.884 128.735 105.871 128.106C105.859 127.477 105.817 126.871 105.75 126.376C105.716 126.128 105.678 125.921 105.637 125.758C105.617 125.677 105.598 125.613 105.581 125.565C105.573 125.542 105.566 125.524 105.56 125.511C105.555 125.499 105.552 125.493 105.552 125.493L105.552 125.493L105.545 125.481L105.539 125.469C105.312 125.024 104.988 124.832 104.715 124.788C104.45 124.745 104.119 124.822 103.811 125.157Z" stroke="black" stroke-width="2"/>
<path d="M113.308 125.16L113.308 125.16L113.299 125.169C113.179 125.295 113.135 125.359 113.107 125.412C113.081 125.462 113.044 125.55 113.012 125.743C112.94 126.177 112.922 126.898 112.922 128.369C112.922 129.894 112.941 130.581 113.019 130.98C113.05 131.144 113.085 131.212 113.111 131.255C113.147 131.313 113.207 131.387 113.371 131.551L113.378 131.557L113.384 131.564C113.752 131.946 113.875 131.967 113.893 131.97L113.893 131.97C113.93 131.976 114.076 131.986 114.595 131.763C114.755 131.685 114.852 131.604 114.925 131.514C115.003 131.416 115.09 131.259 115.164 130.983C115.322 130.393 115.376 129.445 115.316 127.842L115.316 127.839C115.27 126.507 115.233 125.885 115.151 125.524C115.117 125.374 115.086 125.327 115.076 125.313C115.063 125.293 115.03 125.25 114.903 125.152L114.893 125.145L114.883 125.137C114.303 124.666 113.688 124.751 113.308 125.16Z" stroke="black" stroke-width="2"/>
<path d="M122.808 125.16L122.808 125.16L122.799 125.169C122.679 125.295 122.635 125.359 122.607 125.412C122.581 125.462 122.544 125.55 122.512 125.743C122.44 126.177 122.422 126.898 122.422 128.369C122.422 129.894 122.441 130.581 122.519 130.98C122.55 131.144 122.585 131.212 122.611 131.255C122.647 131.313 122.707 131.387 122.871 131.551L122.878 131.557L122.884 131.564C123.252 131.946 123.375 131.967 123.393 131.97L123.393 131.97C123.43 131.976 123.576 131.986 124.095 131.763C124.255 131.685 124.352 131.604 124.425 131.514C124.503 131.416 124.59 131.259 124.664 130.983C124.822 130.393 124.876 129.445 124.816 127.842L124.816 127.839C124.77 126.507 124.733 125.885 124.651 125.524C124.617 125.374 124.586 125.327 124.576 125.313C124.563 125.293 124.53 125.25 124.403 125.152L124.393 125.145L124.383 125.137C123.803 124.666 123.188 124.751 122.808 125.16Z" stroke="black" stroke-width="2"/>
</g>
<defs>
<clipPath id="clip0_3_78">
<rect width="152" height="152" fill="white"/>
</clipPath>
</defs>
</svg>
