<svg width="60" height="60" viewBox="0 0 60 60" fill="none" xmlns="http://www.w3.org/2000/svg">
<mask id="path-1-inside-1_7_2" fill="white">
<path d="M14.2969 2.48439C13.5469 2.87111 13.0898 3.56251 13.0898 4.35939C13.0781 5.15626 13.3828 5.80079 13.957 6.19923L14.4023 6.50392L14.414 8.21486C14.414 9.77345 14.4375 9.96095 14.6601 10.2422L14.8945 10.5469H17.7656H20.625V13.125V15.7031H18.4219C15.4922 15.7031 15.7031 15.4922 15.7031 18.4336V20.625H13.125H10.5469V17.7656V14.8945L10.2422 14.6602C9.96092 14.4375 9.77342 14.4141 8.21482 14.4141L6.50389 14.4024L6.1992 13.957C5.55467 13.043 4.17186 12.7852 3.24607 13.4297C1.91014 14.3555 1.92186 16.2656 3.25779 17.1211C4.25389 17.7539 5.66014 17.4727 6.29295 16.5117L6.59764 16.0547H7.74607H8.89451L8.92967 18.9141C8.96482 21.5274 8.98826 21.7969 9.18748 22.0195C9.41014 22.2539 9.50389 22.2656 12.5625 22.2656H15.7031V24.3164V26.3672H11.1562H6.60936L6.16404 25.8281C5.19139 24.6797 3.79686 24.6445 2.78904 25.7578C2.01561 26.6133 2.06248 27.8789 2.91795 28.7227C3.90232 29.707 5.54295 29.543 6.26951 28.3945L6.50389 28.0195L11.1094 28.0078H15.7031V30V31.9922H11.1094L6.50389 31.9805L6.26951 31.6055C5.74217 30.7617 4.62889 30.3984 3.69139 30.75C2.24998 31.3125 1.78123 33.1172 2.78904 34.2422C3.74998 35.3086 5.15623 35.3203 6.07029 34.2891C6.26951 34.0547 6.44529 33.8086 6.44529 33.75C6.44529 33.6797 8.17967 33.6328 11.0742 33.6328H15.7031V35.6836V37.7344H12.5625C9.50389 37.7344 9.41014 37.7461 9.18748 37.9805C8.98826 38.2031 8.96482 38.4727 8.92967 41.0859L8.89451 43.9453H7.74607H6.59764L6.29295 43.4883C5.66014 42.5274 4.25389 42.2461 3.25779 42.8789C1.61717 43.9219 2.03904 46.3594 3.9492 46.8633C4.81639 47.0977 5.84764 46.6875 6.29295 45.9375L6.49217 45.5859H8.21482C9.77342 45.5859 9.96092 45.5625 10.2422 45.3399L10.5469 45.1055V42.2344V39.375H13.125H15.7031V41.5781C15.7031 44.5078 15.4922 44.2969 18.4336 44.2969H20.625V46.875V49.4531H17.7656H14.8945L14.6601 49.7578C14.4375 50.0391 14.414 50.2266 14.414 51.7852V53.5078L14.0625 53.707C13.3125 54.1524 12.9023 55.1836 13.1367 56.0391C13.6406 57.9609 16.0781 58.3828 17.1211 56.7422C17.7539 55.7461 17.4726 54.3399 16.5117 53.707L16.0547 53.4024V52.2539V51.1055L18.914 51.0703C21.5273 51.0352 21.7969 51.0117 22.0195 50.8125C22.2539 50.5899 22.2656 50.4961 22.2656 47.4375V44.2969H24.3164H26.3672V48.8203V53.3438L25.8281 53.8242C25.207 54.375 24.9609 54.8555 24.9609 55.5469C24.9609 56.1797 25.1953 56.6953 25.6758 57.1406C26.3789 57.7852 27.2344 57.9375 28.0664 57.5508C29.6484 56.8359 29.8359 54.6445 28.3945 53.7305L28.0195 53.4961L28.0078 48.8906V44.2969H30H31.9922V48.8906L31.9804 53.4961L31.6054 53.7305C30.7617 54.2578 30.3984 55.3711 30.75 56.3086C31.3125 57.75 33.1172 58.2188 34.2422 57.2109C34.8047 56.707 35.039 56.2149 35.039 55.5469C35.039 54.8555 34.7812 54.3516 34.1719 53.8359L33.6328 53.3906V48.8438V44.2969H35.6836H37.7344V47.4375C37.7344 50.4961 37.7461 50.5899 37.9804 50.8125C38.2031 51.0117 38.4726 51.0352 41.0859 51.0703L43.9453 51.1055V52.2656V53.4141L43.5351 53.6719C42.539 54.293 42.2344 55.7109 42.8789 56.7422C43.9219 58.3828 46.3594 57.9609 46.8633 56.0391C47.0976 55.1836 46.5937 53.9766 45.8672 53.6484C45.5859 53.5195 45.5859 53.4961 45.5859 51.7969C45.5859 50.2266 45.5625 50.0391 45.3398 49.7578L45.1054 49.4531H42.2344H39.375V46.875V44.2969H41.5898H43.8164L44.0508 43.9922C44.2851 43.6992 44.2969 43.5234 44.2969 41.5313V39.375H46.875H49.4531V42.2344V45.1055L49.7578 45.3399C50.039 45.5625 50.2265 45.5859 51.7851 45.5859H53.5078L53.707 45.9375C54.1523 46.6758 55.2187 47.0977 56.0859 46.8633C57.9726 46.3477 58.3711 43.9102 56.7422 42.8789C55.7461 42.2461 54.3398 42.5274 53.707 43.4883L53.4023 43.9453H52.2539H51.1054L51.0703 41.0859C51.0351 38.4727 51.0117 38.2031 50.8125 37.9805C50.5898 37.7461 50.4961 37.7344 47.4375 37.7344H44.2969V35.6836V33.6328H48.8437H53.3906L53.8359 34.1719C54.3515 34.7813 54.8554 35.0391 55.5468 35.0391C56.1797 35.0391 56.6953 34.8047 57.1406 34.3242C57.7851 33.6211 57.9375 32.7656 57.5508 31.9336C56.8359 30.3516 54.6445 30.1641 53.7304 31.6055L53.4961 31.9805L48.9023 31.9922H44.2969V30V28.0078H48.9023L53.4961 28.0195L53.7304 28.3945C54.2578 29.2383 55.3711 29.6016 56.3086 29.25C57.75 28.6875 58.2187 26.8828 57.2109 25.7578C56.707 25.1953 56.2148 24.9609 55.5468 24.9609C54.8554 24.9609 54.3515 25.2188 53.8359 25.8281L53.3906 26.3672H48.8437H44.2969V24.3164V22.2656H47.4375C50.4961 22.2656 50.5898 22.2539 50.8125 22.0195C51.0117 21.7969 51.0351 21.5274 51.0703 18.9141L51.1054 16.0547H52.2539H53.4023L53.707 16.5117C54.3398 17.4727 55.7461 17.7539 56.7422 17.1211C58.0781 16.2656 58.0898 14.3555 56.7539 13.4297C55.8281 12.7852 54.4453 13.043 53.8008 13.957L53.4961 14.4024L51.7851 14.4141C50.2265 14.4141 50.039 14.4375 49.7578 14.6602L49.4531 14.8945V17.7656V20.625H46.875H44.2969V18.4219C44.2969 15.4922 44.5078 15.7031 41.5664 15.7031H39.375V13.125V10.5469H42.2344H45.1054L45.3398 10.2422C45.5625 9.96095 45.5859 9.77345 45.5859 8.20314C45.5859 6.50392 45.5859 6.48048 45.8672 6.35157C46.582 6.02345 47.0976 4.78126 46.8633 3.91407C46.3476 2.02736 43.9101 1.62892 42.8789 3.25782C42.2461 4.25392 42.5273 5.66017 43.4883 6.29298L43.9453 6.59767V7.74611V8.89454L41.0859 8.9297C38.4726 8.96486 38.2031 8.98829 37.9804 9.18751C37.7461 9.41017 37.7344 9.50391 37.7344 12.5625V15.7031H35.6836H33.6328V11.1563V6.60939L34.1719 6.16407C34.7812 5.64845 35.039 5.14454 35.039 4.45314C35.039 3.82032 34.8047 3.3047 34.3242 2.85939C33.6211 2.21486 32.7656 2.06251 31.9336 2.44923C30.3515 3.16407 30.164 5.35548 31.6054 6.26954L31.9804 6.50392L31.9922 11.0977V15.7031H30H28.0078V11.0977L28.0195 6.50392L28.3945 6.26954C29.2383 5.7422 29.6015 4.62892 29.25 3.69142C28.6875 2.25001 26.8828 1.78126 25.7578 2.78907C25.1953 3.29298 24.9609 3.78517 24.9609 4.45314C24.9609 5.14454 25.2187 5.64845 25.8281 6.16407L26.3672 6.60939V11.1563V15.7031H24.3164H22.2656V12.5625C22.2656 9.50391 22.2539 9.41017 22.0195 9.18751C21.7969 8.98829 21.5273 8.96486 18.914 8.9297L16.0547 8.89454V7.74611V6.59767L16.5117 6.29298C16.7812 6.1172 17.0625 5.77736 17.2148 5.48439C18.164 3.51564 16.207 1.52345 14.2969 2.48439ZM15.5976 3.98439C15.7383 4.06642 15.8203 4.23048 15.8203 4.45314C15.8203 5.05079 15.1406 5.25001 14.8125 4.74611C14.6367 4.47657 14.6367 4.4297 14.8125 4.16017C15.0234 3.84376 15.2344 3.79689 15.5976 3.98439ZM27.5625 4.06642C27.8203 4.30079 27.832 4.54689 27.5742 4.82814C27.3398 5.08595 27.0351 5.09767 26.789 4.85157C26.5547 4.6172 26.5547 4.28907 26.789 4.0547C27.0234 3.80861 27.2929 3.82032 27.5625 4.06642ZM33.2109 4.0547C33.5625 4.39454 33.3164 5.03907 32.8476 5.03907C32.6015 5.03907 32.2265 4.69923 32.2265 4.47657C32.2265 4.21876 32.5781 3.8672 32.8242 3.8672C32.9414 3.8672 33.1172 3.94923 33.2109 4.0547ZM45.1875 4.16017C45.3633 4.4297 45.3633 4.47657 45.1875 4.74611C44.8594 5.23829 44.1797 5.05079 44.1797 4.45314C44.1797 3.85548 44.8594 3.65626 45.1875 4.16017ZM4.81639 14.8711C5.05076 15.0586 5.0742 15.1406 4.98045 15.4219C4.87498 15.7031 4.79295 15.7617 4.45311 15.7617C4.11326 15.7617 4.03123 15.7031 3.92576 15.4219C3.83201 15.1406 3.85545 15.0586 4.08982 14.8711C4.24217 14.7539 4.40623 14.6484 4.45311 14.6484C4.49998 14.6484 4.66404 14.7539 4.81639 14.8711ZM55.9101 14.8711C56.1445 15.0586 56.1679 15.1406 56.0742 15.4219C55.9687 15.7031 55.8867 15.7617 55.5468 15.7617C55.207 15.7617 55.125 15.7031 55.0195 15.4219C54.9258 15.1406 54.9492 15.0586 55.1836 14.8711C55.3359 14.7539 55.5 14.6484 55.5468 14.6484C55.5937 14.6484 55.7578 14.7539 55.9101 14.8711ZM42.6562 30V42.6563H30H17.3437V30V17.3438H30H42.6562V30ZM4.85154 26.7891C4.95701 26.8828 5.03904 27.0586 5.03904 27.1524C5.03904 27.3984 4.6992 27.7734 4.47654 27.7734C4.21873 27.7734 3.86717 27.4219 3.86717 27.1758C3.86717 26.9063 4.17186 26.6016 4.45311 26.6016C4.57029 26.6016 4.75779 26.6836 4.85154 26.7891ZM55.9453 26.7891C56.0508 26.8828 56.1328 27.0586 56.1328 27.1524C56.1328 27.3984 55.7929 27.7734 55.5703 27.7734C55.3125 27.7734 54.9609 27.4219 54.9609 27.1758C54.9609 26.9063 55.2656 26.6016 55.5468 26.6016C55.664 26.6016 55.8515 26.6836 55.9453 26.7891ZM4.86326 32.4609C5.27342 32.918 4.82811 33.5274 4.21873 33.3399C3.89061 33.2344 3.78514 32.7422 4.04295 32.4609C4.16014 32.332 4.34764 32.2266 4.45311 32.2266C4.55857 32.2266 4.74607 32.332 4.86326 32.4609ZM55.957 32.4609C56.3672 32.918 55.9218 33.5274 55.3125 33.3399C54.9843 33.2344 54.8789 32.7422 55.1367 32.4609C55.2539 32.332 55.4414 32.2266 55.5468 32.2266C55.6523 32.2266 55.8398 32.332 55.957 32.4609ZM4.92186 44.4024C5.10936 44.7656 5.06248 44.9766 4.74607 45.1875C4.47654 45.3633 4.42967 45.3633 4.16014 45.1875C3.65623 44.8594 3.85545 44.1797 4.45311 44.1797C4.67576 44.1797 4.83982 44.2617 4.92186 44.4024ZM56.0156 44.4024C56.2031 44.7656 56.1562 44.9766 55.8398 45.1875C55.5703 45.3633 55.5234 45.3633 55.2539 45.1875C54.75 44.8594 54.9492 44.1797 55.5468 44.1797C55.7695 44.1797 55.9336 44.2617 56.0156 44.4024ZM15.5976 55.0781C15.7383 55.1602 15.8203 55.3242 15.8203 55.5469C15.8203 56.1445 15.1406 56.3438 14.8125 55.8399C14.6367 55.5703 14.6367 55.5234 14.8125 55.2539C15.0234 54.9375 15.2344 54.8906 15.5976 55.0781ZM27.5625 55.1602C27.8203 55.3945 27.832 55.6406 27.5742 55.9219C27.3398 56.1797 27.0351 56.1914 26.789 55.9453C26.4375 55.6055 26.6836 54.9609 27.1523 54.9609C27.2578 54.9609 27.4453 55.043 27.5625 55.1602ZM33.2109 55.1484C33.5625 55.4883 33.3164 56.1328 32.8476 56.1328C32.6015 56.1328 32.2265 55.793 32.2265 55.5703C32.2265 55.3125 32.5781 54.9609 32.8242 54.9609C32.9414 54.9609 33.1172 55.043 33.2109 55.1484ZM45.1875 55.2539C45.3633 55.5234 45.3633 55.5703 45.1875 55.8399C44.8594 56.332 44.1797 56.1445 44.1797 55.5469C44.1797 54.9492 44.8594 54.75 45.1875 55.2539Z"/>
</mask>
<path d="M14.2969 2.48439C13.5469 2.87111 13.0898 3.56251 13.0898 4.35939C13.0781 5.15626 13.3828 5.80079 13.957 6.19923L14.4023 6.50392L14.414 8.21486C14.414 9.77345 14.4375 9.96095 14.6601 10.2422L14.8945 10.5469H17.7656H20.625V13.125V15.7031H18.4219C15.4922 15.7031 15.7031 15.4922 15.7031 18.4336V20.625H13.125H10.5469V17.7656V14.8945L10.2422 14.6602C9.96092 14.4375 9.77342 14.4141 8.21482 14.4141L6.50389 14.4024L6.1992 13.957C5.55467 13.043 4.17186 12.7852 3.24607 13.4297C1.91014 14.3555 1.92186 16.2656 3.25779 17.1211C4.25389 17.7539 5.66014 17.4727 6.29295 16.5117L6.59764 16.0547H7.74607H8.89451L8.92967 18.9141C8.96482 21.5274 8.98826 21.7969 9.18748 22.0195C9.41014 22.2539 9.50389 22.2656 12.5625 22.2656H15.7031V24.3164V26.3672H11.1562H6.60936L6.16404 25.8281C5.19139 24.6797 3.79686 24.6445 2.78904 25.7578C2.01561 26.6133 2.06248 27.8789 2.91795 28.7227C3.90232 29.707 5.54295 29.543 6.26951 28.3945L6.50389 28.0195L11.1094 28.0078H15.7031V30V31.9922H11.1094L6.50389 31.9805L6.26951 31.6055C5.74217 30.7617 4.62889 30.3984 3.69139 30.75C2.24998 31.3125 1.78123 33.1172 2.78904 34.2422C3.74998 35.3086 5.15623 35.3203 6.07029 34.2891C6.26951 34.0547 6.44529 33.8086 6.44529 33.75C6.44529 33.6797 8.17967 33.6328 11.0742 33.6328H15.7031V35.6836V37.7344H12.5625C9.50389 37.7344 9.41014 37.7461 9.18748 37.9805C8.98826 38.2031 8.96482 38.4727 8.92967 41.0859L8.89451 43.9453H7.74607H6.59764L6.29295 43.4883C5.66014 42.5274 4.25389 42.2461 3.25779 42.8789C1.61717 43.9219 2.03904 46.3594 3.9492 46.8633C4.81639 47.0977 5.84764 46.6875 6.29295 45.9375L6.49217 45.5859H8.21482C9.77342 45.5859 9.96092 45.5625 10.2422 45.3399L10.5469 45.1055V42.2344V39.375H13.125H15.7031V41.5781C15.7031 44.5078 15.4922 44.2969 18.4336 44.2969H20.625V46.875V49.4531H17.7656H14.8945L14.6601 49.7578C14.4375 50.0391 14.414 50.2266 14.414 51.7852V53.5078L14.0625 53.707C13.3125 54.1524 12.9023 55.1836 13.1367 56.0391C13.6406 57.9609 16.0781 58.3828 17.1211 56.7422C17.7539 55.7461 17.4726 54.3399 16.5117 53.707L16.0547 53.4024V52.2539V51.1055L18.914 51.0703C21.5273 51.0352 21.7969 51.0117 22.0195 50.8125C22.2539 50.5899 22.2656 50.4961 22.2656 47.4375V44.2969H24.3164H26.3672V48.8203V53.3438L25.8281 53.8242C25.207 54.375 24.9609 54.8555 24.9609 55.5469C24.9609 56.1797 25.1953 56.6953 25.6758 57.1406C26.3789 57.7852 27.2344 57.9375 28.0664 57.5508C29.6484 56.8359 29.8359 54.6445 28.3945 53.7305L28.0195 53.4961L28.0078 48.8906V44.2969H30H31.9922V48.8906L31.9804 53.4961L31.6054 53.7305C30.7617 54.2578 30.3984 55.3711 30.75 56.3086C31.3125 57.75 33.1172 58.2188 34.2422 57.2109C34.8047 56.707 35.039 56.2149 35.039 55.5469C35.039 54.8555 34.7812 54.3516 34.1719 53.8359L33.6328 53.3906V48.8438V44.2969H35.6836H37.7344V47.4375C37.7344 50.4961 37.7461 50.5899 37.9804 50.8125C38.2031 51.0117 38.4726 51.0352 41.0859 51.0703L43.9453 51.1055V52.2656V53.4141L43.5351 53.6719C42.539 54.293 42.2344 55.7109 42.8789 56.7422C43.9219 58.3828 46.3594 57.9609 46.8633 56.0391C47.0976 55.1836 46.5937 53.9766 45.8672 53.6484C45.5859 53.5195 45.5859 53.4961 45.5859 51.7969C45.5859 50.2266 45.5625 50.0391 45.3398 49.7578L45.1054 49.4531H42.2344H39.375V46.875V44.2969H41.5898H43.8164L44.0508 43.9922C44.2851 43.6992 44.2969 43.5234 44.2969 41.5313V39.375H46.875H49.4531V42.2344V45.1055L49.7578 45.3399C50.039 45.5625 50.2265 45.5859 51.7851 45.5859H53.5078L53.707 45.9375C54.1523 46.6758 55.2187 47.0977 56.0859 46.8633C57.9726 46.3477 58.3711 43.9102 56.7422 42.8789C55.7461 42.2461 54.3398 42.5274 53.707 43.4883L53.4023 43.9453H52.2539H51.1054L51.0703 41.0859C51.0351 38.4727 51.0117 38.2031 50.8125 37.9805C50.5898 37.7461 50.4961 37.7344 47.4375 37.7344H44.2969V35.6836V33.6328H48.8437H53.3906L53.8359 34.1719C54.3515 34.7813 54.8554 35.0391 55.5468 35.0391C56.1797 35.0391 56.6953 34.8047 57.1406 34.3242C57.7851 33.6211 57.9375 32.7656 57.5508 31.9336C56.8359 30.3516 54.6445 30.1641 53.7304 31.6055L53.4961 31.9805L48.9023 31.9922H44.2969V30V28.0078H48.9023L53.4961 28.0195L53.7304 28.3945C54.2578 29.2383 55.3711 29.6016 56.3086 29.25C57.75 28.6875 58.2187 26.8828 57.2109 25.7578C56.707 25.1953 56.2148 24.9609 55.5468 24.9609C54.8554 24.9609 54.3515 25.2188 53.8359 25.8281L53.3906 26.3672H48.8437H44.2969V24.3164V22.2656H47.4375C50.4961 22.2656 50.5898 22.2539 50.8125 22.0195C51.0117 21.7969 51.0351 21.5274 51.0703 18.9141L51.1054 16.0547H52.2539H53.4023L53.707 16.5117C54.3398 17.4727 55.7461 17.7539 56.7422 17.1211C58.0781 16.2656 58.0898 14.3555 56.7539 13.4297C55.8281 12.7852 54.4453 13.043 53.8008 13.957L53.4961 14.4024L51.7851 14.4141C50.2265 14.4141 50.039 14.4375 49.7578 14.6602L49.4531 14.8945V17.7656V20.625H46.875H44.2969V18.4219C44.2969 15.4922 44.5078 15.7031 41.5664 15.7031H39.375V13.125V10.5469H42.2344H45.1054L45.3398 10.2422C45.5625 9.96095 45.5859 9.77345 45.5859 8.20314C45.5859 6.50392 45.5859 6.48048 45.8672 6.35157C46.582 6.02345 47.0976 4.78126 46.8633 3.91407C46.3476 2.02736 43.9101 1.62892 42.8789 3.25782C42.2461 4.25392 42.5273 5.66017 43.4883 6.29298L43.9453 6.59767V7.74611V8.89454L41.0859 8.9297C38.4726 8.96486 38.2031 8.98829 37.9804 9.18751C37.7461 9.41017 37.7344 9.50391 37.7344 12.5625V15.7031H35.6836H33.6328V11.1563V6.60939L34.1719 6.16407C34.7812 5.64845 35.039 5.14454 35.039 4.45314C35.039 3.82032 34.8047 3.3047 34.3242 2.85939C33.6211 2.21486 32.7656 2.06251 31.9336 2.44923C30.3515 3.16407 30.164 5.35548 31.6054 6.26954L31.9804 6.50392L31.9922 11.0977V15.7031H30H28.0078V11.0977L28.0195 6.50392L28.3945 6.26954C29.2383 5.7422 29.6015 4.62892 29.25 3.69142C28.6875 2.25001 26.8828 1.78126 25.7578 2.78907C25.1953 3.29298 24.9609 3.78517 24.9609 4.45314C24.9609 5.14454 25.2187 5.64845 25.8281 6.16407L26.3672 6.60939V11.1563V15.7031H24.3164H22.2656V12.5625C22.2656 9.50391 22.2539 9.41017 22.0195 9.18751C21.7969 8.98829 21.5273 8.96486 18.914 8.9297L16.0547 8.89454V7.74611V6.59767L16.5117 6.29298C16.7812 6.1172 17.0625 5.77736 17.2148 5.48439C18.164 3.51564 16.207 1.52345 14.2969 2.48439ZM15.5976 3.98439C15.7383 4.06642 15.8203 4.23048 15.8203 4.45314C15.8203 5.05079 15.1406 5.25001 14.8125 4.74611C14.6367 4.47657 14.6367 4.4297 14.8125 4.16017C15.0234 3.84376 15.2344 3.79689 15.5976 3.98439ZM27.5625 4.06642C27.8203 4.30079 27.832 4.54689 27.5742 4.82814C27.3398 5.08595 27.0351 5.09767 26.789 4.85157C26.5547 4.6172 26.5547 4.28907 26.789 4.0547C27.0234 3.80861 27.2929 3.82032 27.5625 4.06642ZM33.2109 4.0547C33.5625 4.39454 33.3164 5.03907 32.8476 5.03907C32.6015 5.03907 32.2265 4.69923 32.2265 4.47657C32.2265 4.21876 32.5781 3.8672 32.8242 3.8672C32.9414 3.8672 33.1172 3.94923 33.2109 4.0547ZM45.1875 4.16017C45.3633 4.4297 45.3633 4.47657 45.1875 4.74611C44.8594 5.23829 44.1797 5.05079 44.1797 4.45314C44.1797 3.85548 44.8594 3.65626 45.1875 4.16017ZM4.81639 14.8711C5.05076 15.0586 5.0742 15.1406 4.98045 15.4219C4.87498 15.7031 4.79295 15.7617 4.45311 15.7617C4.11326 15.7617 4.03123 15.7031 3.92576 15.4219C3.83201 15.1406 3.85545 15.0586 4.08982 14.8711C4.24217 14.7539 4.40623 14.6484 4.45311 14.6484C4.49998 14.6484 4.66404 14.7539 4.81639 14.8711ZM55.9101 14.8711C56.1445 15.0586 56.1679 15.1406 56.0742 15.4219C55.9687 15.7031 55.8867 15.7617 55.5468 15.7617C55.207 15.7617 55.125 15.7031 55.0195 15.4219C54.9258 15.1406 54.9492 15.0586 55.1836 14.8711C55.3359 14.7539 55.5 14.6484 55.5468 14.6484C55.5937 14.6484 55.7578 14.7539 55.9101 14.8711ZM42.6562 30V42.6563H30H17.3437V30V17.3438H30H42.6562V30ZM4.85154 26.7891C4.95701 26.8828 5.03904 27.0586 5.03904 27.1524C5.03904 27.3984 4.6992 27.7734 4.47654 27.7734C4.21873 27.7734 3.86717 27.4219 3.86717 27.1758C3.86717 26.9063 4.17186 26.6016 4.45311 26.6016C4.57029 26.6016 4.75779 26.6836 4.85154 26.7891ZM55.9453 26.7891C56.0508 26.8828 56.1328 27.0586 56.1328 27.1524C56.1328 27.3984 55.7929 27.7734 55.5703 27.7734C55.3125 27.7734 54.9609 27.4219 54.9609 27.1758C54.9609 26.9063 55.2656 26.6016 55.5468 26.6016C55.664 26.6016 55.8515 26.6836 55.9453 26.7891ZM4.86326 32.4609C5.27342 32.918 4.82811 33.5274 4.21873 33.3399C3.89061 33.2344 3.78514 32.7422 4.04295 32.4609C4.16014 32.332 4.34764 32.2266 4.45311 32.2266C4.55857 32.2266 4.74607 32.332 4.86326 32.4609ZM55.957 32.4609C56.3672 32.918 55.9218 33.5274 55.3125 33.3399C54.9843 33.2344 54.8789 32.7422 55.1367 32.4609C55.2539 32.332 55.4414 32.2266 55.5468 32.2266C55.6523 32.2266 55.8398 32.332 55.957 32.4609ZM4.92186 44.4024C5.10936 44.7656 5.06248 44.9766 4.74607 45.1875C4.47654 45.3633 4.42967 45.3633 4.16014 45.1875C3.65623 44.8594 3.85545 44.1797 4.45311 44.1797C4.67576 44.1797 4.83982 44.2617 4.92186 44.4024ZM56.0156 44.4024C56.2031 44.7656 56.1562 44.9766 55.8398 45.1875C55.5703 45.3633 55.5234 45.3633 55.2539 45.1875C54.75 44.8594 54.9492 44.1797 55.5468 44.1797C55.7695 44.1797 55.9336 44.2617 56.0156 44.4024ZM15.5976 55.0781C15.7383 55.1602 15.8203 55.3242 15.8203 55.5469C15.8203 56.1445 15.1406 56.3438 14.8125 55.8399C14.6367 55.5703 14.6367 55.5234 14.8125 55.2539C15.0234 54.9375 15.2344 54.8906 15.5976 55.0781ZM27.5625 55.1602C27.8203 55.3945 27.832 55.6406 27.5742 55.9219C27.3398 56.1797 27.0351 56.1914 26.789 55.9453C26.4375 55.6055 26.6836 54.9609 27.1523 54.9609C27.2578 54.9609 27.4453 55.043 27.5625 55.1602ZM33.2109 55.1484C33.5625 55.4883 33.3164 56.1328 32.8476 56.1328C32.6015 56.1328 32.2265 55.793 32.2265 55.5703C32.2265 55.3125 32.5781 54.9609 32.8242 54.9609C32.9414 54.9609 33.1172 55.043 33.2109 55.1484ZM45.1875 55.2539C45.3633 55.5234 45.3633 55.5703 45.1875 55.8399C44.8594 56.332 44.1797 56.1445 44.1797 55.5469C44.1797 54.9492 44.8594 54.75 45.1875 55.2539Z" stroke="black" stroke-width="2" mask="url(#path-1-inside-1_7_2)"/>
<path d="M20.5489 20.5285L20.549 20.5286L20.541 20.537L20.4219 20.6616V30.0117V39.3537L20.5285 39.4511L20.5286 39.451L20.537 39.459L20.6616 39.5781H30.0234H39.3515L39.4357 39.4686L39.4374 39.4665C39.4524 39.4471 39.4585 39.4385 39.4607 39.4354C39.4626 39.4307 39.4713 39.4074 39.4818 39.3474C39.5091 39.1914 39.5321 38.8943 39.5475 38.2727C39.5781 37.0445 39.5781 34.6746 39.5781 29.9414V20.6463L39.4715 20.5489L39.4714 20.549L39.463 20.541L39.3384 20.4219H29.9883H20.6463L20.5489 20.5285ZM38.9375 38.4375V38.9375H38.4375H30H21.5625H21.0625V38.4375V30V21.5625V21.0625H21.5625H30H38.4375H38.9375V21.5625V30V38.4375Z" stroke="black"/>
<path d="M36.2488 25.5712L36.2488 25.5712L36.2445 25.5757C36.2174 25.6041 36.2082 25.6153 36.2039 25.6213C36.2019 25.6239 36.2015 25.6246 36.2 25.6282C36.1938 25.643 36.1749 25.6985 36.1596 25.8674C36.1285 26.2108 36.125 26.8342 36.125 28.1016C36.125 29.338 36.1284 29.9645 36.157 30.3136C36.1711 30.485 36.1887 30.547 36.1957 30.5659C36.1984 30.5689 36.2036 30.5746 36.2129 30.5839C36.2128 30.5838 36.2128 30.5838 36.213 30.584C36.2142 30.585 36.2223 30.5922 36.2398 30.603C36.2592 30.6149 36.2841 30.6277 36.3128 30.6392C36.3754 30.6645 36.4254 30.6719 36.4453 30.6719C36.4652 30.6719 36.5152 30.6645 36.5778 30.6392C36.6065 30.6277 36.6314 30.6149 36.6508 30.603C36.6683 30.5922 36.6764 30.585 36.6776 30.584C36.6778 30.5838 36.6778 30.5838 36.6777 30.5839C36.6869 30.5747 36.6921 30.5691 36.6948 30.566C36.7019 30.5469 36.7195 30.4845 36.7336 30.3123C36.7622 29.9617 36.7656 29.3321 36.7656 28.0898C36.7656 26.7783 36.765 26.1551 36.7341 25.8216C36.7226 25.6981 36.7091 25.6469 36.7039 25.6307C36.6974 25.624 36.684 25.6109 36.659 25.588L36.6589 25.588L36.6549 25.5843C36.5564 25.4923 36.4762 25.4738 36.43 25.4741C36.3876 25.4744 36.3239 25.4905 36.2488 25.5712Z" stroke="black"/>
</svg>
