<svg width="60" height="60" viewBox="0 0 60 60" fill="none" xmlns="http://www.w3.org/2000/svg">
<g clip-path="url(#clip0_15_17)">
<mask id="path-1-inside-1_15_17" fill="white">
<path d="M28.9219 15.8555C29.5875 15.1172 29.85 13.957 29.5031 12.9258C29.2875 12.3047 29.0531 11.6953 28.7906 11.1094L28.5 10.4766C28.2187 9.89063 27.9094 9.31641 27.5812 8.76563C27.0469 7.875 26.1094 7.58203 25.2656 7.93359L22.6219 9.02344C21.6187 7.99219 20.4656 7.14844 19.2281 6.57422L18.6562 3.17578C18.4781 2.08594 17.8031 1.21875 16.9219 1.08984C16.3031 0.984375 15.675 0.9375 15.0375 0.9375H14.9719C14.3344 0.9375 13.7062 0.984375 13.0875 1.07812C12.2062 1.20703 11.5312 2.08594 11.3531 3.16406L10.7812 6.57422C9.53435 7.16016 8.3906 7.99219 7.38748 9.02344L4.73435 7.94531C3.8906 7.59375 2.9531 7.88672 2.41873 8.77734C2.0906 9.32813 1.78123 9.90234 1.4906 10.4883L1.20935 11.1094C0.946853 11.6953 0.712478 12.3047 0.496853 12.9375C0.149978 13.957 0.412478 15.1172 1.0781 15.8672L3.15935 18.1875C3.05623 18.9727 2.99998 19.793 2.99998 20.625C2.99998 21.457 3.05623 22.2773 3.15935 23.0742L1.0781 25.3945C0.412478 26.1328 0.149978 27.293 0.496853 28.3242C0.712478 28.9453 0.946853 29.5547 1.20935 30.1523L1.4906 30.7617C1.77185 31.3594 2.08123 31.9219 2.41873 32.4727C2.9531 33.3633 3.8906 33.6563 4.73435 33.3047L7.3781 32.2148C8.38123 33.2461 9.53435 34.0898 10.7719 34.6641L11.3437 38.0742C11.5219 39.1641 12.1969 40.0313 13.0781 40.1602C13.7062 40.2539 14.3437 40.3008 14.9906 40.3008C15.6375 40.3008 16.275 40.2539 16.9031 40.1602C17.7844 40.0313 18.4594 39.1523 18.6375 38.0742L19.2094 34.6641C20.4562 34.0781 21.6 33.2461 22.6031 32.2148L25.2469 33.3047C26.0906 33.6563 27.0281 33.3633 27.5625 32.4727C27.8906 31.9219 28.2 31.3594 28.4812 30.7617L28.7719 30.1289C29.0344 29.543 29.2687 28.9336 29.4844 28.3125C29.8312 27.293 29.5687 26.1328 28.9031 25.3828L26.8219 23.0625C26.925 22.2656 26.9812 21.4453 26.9812 20.6133C26.9812 19.7812 26.925 18.9609 26.8219 18.1641L28.9031 15.8437L28.9219 15.8555ZM10.5 20.625C10.5 19.1332 10.9741 17.7024 11.818 16.6475C12.6619 15.5926 13.8065 15 15 15C16.1935 15 17.338 15.5926 18.182 16.6475C19.0259 17.7024 19.5 19.1332 19.5 20.625C19.5 22.1168 19.0259 23.5476 18.182 24.6025C17.338 25.6574 16.1935 26.25 15 26.25C13.8065 26.25 12.6619 25.6574 11.818 24.6025C10.9741 23.5476 10.5 22.1168 10.5 20.625ZM47.3156 58.6523C47.9062 59.4844 48.8344 59.8125 49.6594 59.3789C50.1562 59.1094 50.6437 58.8164 51.1125 58.4883L51.6187 58.125C52.0875 57.7734 52.5469 57.3867 52.9875 56.9766C53.7 56.3086 53.9344 55.1367 53.6531 54.082L52.7812 50.7773C53.6062 49.5234 54.2812 48.082 54.7406 46.5352L57.4687 45.8203C58.3406 45.5977 59.0344 44.7539 59.1375 43.6523C59.2125 42.8672 59.25 42.0703 59.25 41.2617C59.25 40.4531 59.2125 39.6563 59.1375 38.8711C59.0344 37.7695 58.3312 36.9258 57.4687 36.7031L54.7406 35.9766C54.2719 34.418 53.6062 32.9883 52.7812 31.7344L53.6531 28.4297C53.9344 27.375 53.7 26.2031 52.9875 25.5352C52.5469 25.125 52.0875 24.7383 51.6187 24.375L51.1219 24.0234C50.6531 23.6953 50.1656 23.4023 49.6594 23.1328C48.8437 22.6992 47.9156 23.0273 47.3156 23.8594L45.4594 26.4609C44.8219 26.332 44.1656 26.2617 43.5 26.2617C42.8344 26.2617 42.1781 26.332 41.5406 26.4609L39.6844 23.8594C39.0937 23.0273 38.1656 22.6992 37.3406 23.1328C36.8437 23.4023 36.3562 23.6953 35.8781 24.0234L35.3906 24.375C34.9125 24.7266 34.4625 25.1133 34.0219 25.5352C33.3094 26.2031 33.075 27.375 33.3562 28.4297L34.2281 31.7344C33.4031 32.9883 32.7281 34.4297 32.2687 35.9766L29.5406 36.6797C28.6687 36.9023 27.975 37.7461 27.8719 38.8477C27.7969 39.6328 27.7594 40.4297 27.7594 41.2383C27.7594 42.0469 27.7969 42.8437 27.8719 43.6289C27.975 44.7305 28.6781 45.5742 29.5406 45.7969L32.2687 46.5117C32.7375 48.0703 33.4031 49.5 34.2281 50.7539L33.3562 54.0586C33.075 55.1133 33.3094 56.2852 34.0219 56.9531C34.4625 57.3633 34.9125 57.75 35.3906 58.1016L35.8969 58.4648C36.3656 58.793 36.8531 59.0859 37.35 59.3555C38.1656 59.7891 39.0937 59.4609 39.6937 58.6289L41.55 56.0273C42.1875 56.1563 42.8437 56.2266 43.5094 56.2266C44.175 56.2266 44.8312 56.1563 45.4687 56.0273L47.325 58.6289L47.3156 58.6523ZM43.5 35.625C44.0909 35.625 44.6761 35.7705 45.2221 36.0532C45.768 36.3359 46.2641 36.7502 46.682 37.2725C47.0998 37.7949 47.4313 38.4149 47.6574 39.0974C47.8836 39.7799 48 40.5113 48 41.25C48 41.9887 47.8836 42.7201 47.6574 43.4026C47.4313 44.0851 47.0998 44.7051 46.682 45.2275C46.2641 45.7498 45.768 46.1641 45.2221 46.4468C44.6761 46.7295 44.0909 46.875 43.5 46.875C42.909 46.875 42.3239 46.7295 41.7779 46.4468C41.2319 46.1641 40.7359 45.7498 40.318 45.2275C39.9001 44.7051 39.5687 44.0851 39.3425 43.4026C39.1164 42.7201 39 41.9887 39 41.25C39 40.5113 39.1164 39.7799 39.3425 39.0974C39.5687 38.4149 39.9001 37.7949 40.318 37.2725C40.7359 36.7502 41.2319 36.3359 41.7779 36.0532C42.3239 35.7705 42.909 35.625 43.5 35.625Z"/>
</mask>
<path d="M28.9219 15.8555C29.5875 15.1172 29.85 13.957 29.5031 12.9258C29.2875 12.3047 29.0531 11.6953 28.7906 11.1094L28.5 10.4766C28.2187 9.89063 27.9094 9.31641 27.5812 8.76563C27.0469 7.875 26.1094 7.58203 25.2656 7.93359L22.6219 9.02344C21.6187 7.99219 20.4656 7.14844 19.2281 6.57422L18.6562 3.17578C18.4781 2.08594 17.8031 1.21875 16.9219 1.08984C16.3031 0.984375 15.675 0.9375 15.0375 0.9375H14.9719C14.3344 0.9375 13.7062 0.984375 13.0875 1.07812C12.2062 1.20703 11.5312 2.08594 11.3531 3.16406L10.7812 6.57422C9.53435 7.16016 8.3906 7.99219 7.38748 9.02344L4.73435 7.94531C3.8906 7.59375 2.9531 7.88672 2.41873 8.77734C2.0906 9.32813 1.78123 9.90234 1.4906 10.4883L1.20935 11.1094C0.946853 11.6953 0.712478 12.3047 0.496853 12.9375C0.149978 13.957 0.412478 15.1172 1.0781 15.8672L3.15935 18.1875C3.05623 18.9727 2.99998 19.793 2.99998 20.625C2.99998 21.457 3.05623 22.2773 3.15935 23.0742L1.0781 25.3945C0.412478 26.1328 0.149978 27.293 0.496853 28.3242C0.712478 28.9453 0.946853 29.5547 1.20935 30.1523L1.4906 30.7617C1.77185 31.3594 2.08123 31.9219 2.41873 32.4727C2.9531 33.3633 3.8906 33.6563 4.73435 33.3047L7.3781 32.2148C8.38123 33.2461 9.53435 34.0898 10.7719 34.6641L11.3437 38.0742C11.5219 39.1641 12.1969 40.0313 13.0781 40.1602C13.7062 40.2539 14.3437 40.3008 14.9906 40.3008C15.6375 40.3008 16.275 40.2539 16.9031 40.1602C17.7844 40.0313 18.4594 39.1523 18.6375 38.0742L19.2094 34.6641C20.4562 34.0781 21.6 33.2461 22.6031 32.2148L25.2469 33.3047C26.0906 33.6563 27.0281 33.3633 27.5625 32.4727C27.8906 31.9219 28.2 31.3594 28.4812 30.7617L28.7719 30.1289C29.0344 29.543 29.2687 28.9336 29.4844 28.3125C29.8312 27.293 29.5687 26.1328 28.9031 25.3828L26.8219 23.0625C26.925 22.2656 26.9812 21.4453 26.9812 20.6133C26.9812 19.7812 26.925 18.9609 26.8219 18.1641L28.9031 15.8437L28.9219 15.8555ZM10.5 20.625C10.5 19.1332 10.9741 17.7024 11.818 16.6475C12.6619 15.5926 13.8065 15 15 15C16.1935 15 17.338 15.5926 18.182 16.6475C19.0259 17.7024 19.5 19.1332 19.5 20.625C19.5 22.1168 19.0259 23.5476 18.182 24.6025C17.338 25.6574 16.1935 26.25 15 26.25C13.8065 26.25 12.6619 25.6574 11.818 24.6025C10.9741 23.5476 10.5 22.1168 10.5 20.625ZM47.3156 58.6523C47.9062 59.4844 48.8344 59.8125 49.6594 59.3789C50.1562 59.1094 50.6437 58.8164 51.1125 58.4883L51.6187 58.125C52.0875 57.7734 52.5469 57.3867 52.9875 56.9766C53.7 56.3086 53.9344 55.1367 53.6531 54.082L52.7812 50.7773C53.6062 49.5234 54.2812 48.082 54.7406 46.5352L57.4687 45.8203C58.3406 45.5977 59.0344 44.7539 59.1375 43.6523C59.2125 42.8672 59.25 42.0703 59.25 41.2617C59.25 40.4531 59.2125 39.6563 59.1375 38.8711C59.0344 37.7695 58.3312 36.9258 57.4687 36.7031L54.7406 35.9766C54.2719 34.418 53.6062 32.9883 52.7812 31.7344L53.6531 28.4297C53.9344 27.375 53.7 26.2031 52.9875 25.5352C52.5469 25.125 52.0875 24.7383 51.6187 24.375L51.1219 24.0234C50.6531 23.6953 50.1656 23.4023 49.6594 23.1328C48.8437 22.6992 47.9156 23.0273 47.3156 23.8594L45.4594 26.4609C44.8219 26.332 44.1656 26.2617 43.5 26.2617C42.8344 26.2617 42.1781 26.332 41.5406 26.4609L39.6844 23.8594C39.0937 23.0273 38.1656 22.6992 37.3406 23.1328C36.8437 23.4023 36.3562 23.6953 35.8781 24.0234L35.3906 24.375C34.9125 24.7266 34.4625 25.1133 34.0219 25.5352C33.3094 26.2031 33.075 27.375 33.3562 28.4297L34.2281 31.7344C33.4031 32.9883 32.7281 34.4297 32.2687 35.9766L29.5406 36.6797C28.6687 36.9023 27.975 37.7461 27.8719 38.8477C27.7969 39.6328 27.7594 40.4297 27.7594 41.2383C27.7594 42.0469 27.7969 42.8437 27.8719 43.6289C27.975 44.7305 28.6781 45.5742 29.5406 45.7969L32.2687 46.5117C32.7375 48.0703 33.4031 49.5 34.2281 50.7539L33.3562 54.0586C33.075 55.1133 33.3094 56.2852 34.0219 56.9531C34.4625 57.3633 34.9125 57.75 35.3906 58.1016L35.8969 58.4648C36.3656 58.793 36.8531 59.0859 37.35 59.3555C38.1656 59.7891 39.0937 59.4609 39.6937 58.6289L41.55 56.0273C42.1875 56.1563 42.8437 56.2266 43.5094 56.2266C44.175 56.2266 44.8312 56.1563 45.4687 56.0273L47.325 58.6289L47.3156 58.6523ZM43.5 35.625C44.0909 35.625 44.6761 35.7705 45.2221 36.0532C45.768 36.3359 46.2641 36.7502 46.682 37.2725C47.0998 37.7949 47.4313 38.4149 47.6574 39.0974C47.8836 39.7799 48 40.5113 48 41.25C48 41.9887 47.8836 42.7201 47.6574 43.4026C47.4313 44.0851 47.0998 44.7051 46.682 45.2275C46.2641 45.7498 45.768 46.1641 45.2221 46.4468C44.6761 46.7295 44.0909 46.875 43.5 46.875C42.909 46.875 42.3239 46.7295 41.7779 46.4468C41.2319 46.1641 40.7359 45.7498 40.318 45.2275C39.9001 44.7051 39.5687 44.0851 39.3425 43.4026C39.1164 42.7201 39 41.9887 39 41.25C39 40.5113 39.1164 39.7799 39.3425 39.0974C39.5687 38.4149 39.9001 37.7949 40.318 37.2725C40.7359 36.7502 41.2319 36.3359 41.7779 36.0532C42.3239 35.7705 42.909 35.625 43.5 35.625Z" stroke="black" stroke-width="4" mask="url(#path-1-inside-1_15_17)"/>
</g>
<defs>
<clipPath id="clip0_15_17">
<rect width="60" height="60" fill="white"/>
</clipPath>
</defs>
</svg>
