<svg width="60" height="60" viewBox="0 0 60 60" fill="none" xmlns="http://www.w3.org/2000/svg">
<g clip-path="url(#clip0_1_8)">
<path d="M-9 49.4387C-8.7187 49.1574 -8.33716 48.9993 -7.93934 48.9993C-5.52734 48.9993 -4.06034 47.8293 -3.13934 46.5993C-2.62035 45.901 -2.21625 45.1242 -1.94234 44.2983L-1.90034 44.1603L-1.89434 44.1363C-1.81682 43.8261 -1.6422 43.5488 -1.39596 43.3448C-1.14971 43.1409 -0.844735 43.0209 -0.525517 43.0025C-0.206298 42.9841 0.110455 43.0681 0.378529 43.2424C0.646602 43.4167 0.851966 43.6751 0.964659 43.9743L0.97666 44.0043C1.36749 44.9204 1.8823 45.7784 2.50666 46.5543C3.58066 47.8743 5.06866 48.9993 7.06066 48.9993C9.05266 48.9993 10.5377 47.8773 11.6057 46.5573C12.1935 45.8249 12.6836 45.0192 13.0637 44.1603L13.1237 44.0073L13.1387 43.9773C13.2457 43.6924 13.4369 43.4467 13.6868 43.273C13.9368 43.0993 14.2337 43.0058 14.5381 43.0048C14.8424 43.0038 15.1399 43.0955 15.391 43.2676C15.642 43.4397 15.8348 43.6841 15.9437 43.9683L15.9587 44.0013C16.352 44.9174 16.8687 45.7754 17.4947 46.5513C18.5747 47.8743 20.0687 48.9993 22.0607 48.9993C24.0527 48.9993 25.5437 47.8773 26.6177 46.5573C27.2074 45.824 27.6995 45.0173 28.0817 44.1573L28.1417 44.0043L28.1567 43.9743C28.2694 43.6751 28.4747 43.4197 28.7428 43.2454C29.0109 43.0711 29.3276 42.9871 29.6468 43.0055C29.9661 43.0239 30.271 43.1439 30.5173 43.3478C30.7635 43.5518 30.9381 43.8291 31.0157 44.1393L31.0247 44.1693L31.0667 44.3103C31.3364 45.1433 31.7385 45.9273 32.2577 46.6323C33.1727 47.8623 34.6337 49.0293 37.0427 48.9993C37.2396 48.997 37.4352 49.0334 37.6181 49.1066" stroke="black"/>
<path d="M67.6181 49.4387C67.3368 49.1574 66.9552 48.9993 66.5574 48.9993C64.1454 48.9993 62.6784 47.8293 61.7574 46.5993C61.2384 45.901 60.8343 45.1242 60.5604 44.2983L60.5184 44.1603L60.5124 44.1363C60.4349 43.8261 60.2603 43.5488 60.014 43.3448C59.7678 43.1409 59.4628 43.0209 59.1436 43.0025C58.8244 42.9841 58.5076 43.0681 58.2395 43.2424C57.9715 43.4167 57.7661 43.6751 57.6534 43.9743L57.6414 44.0043C57.2506 44.9204 56.7358 45.7784 56.1114 46.5543C55.0374 47.8743 53.5494 48.9993 51.5574 48.9993C49.5654 48.9993 48.0804 47.8773 47.0124 46.5573C46.4245 45.8249 45.9344 45.0192 45.5544 44.1603L45.4944 44.0073L45.4794 43.9773C45.3724 43.6924 45.1812 43.4467 44.9312 43.273C44.6813 43.0993 44.3844 43.0058 44.08 43.0048C43.7756 43.0038 43.4781 43.0955 43.2271 43.2676C42.976 43.4397 42.7833 43.6841 42.6744 43.9683L42.6594 44.0013C42.2661 44.9174 41.7493 45.7754 41.1234 46.5513C40.0434 47.8743 38.5494 48.9993 36.5574 48.9993C34.5654 48.9993 33.0744 47.8773 32.0004 46.5573C31.4107 45.824 30.9186 45.0173 30.5364 44.1573L30.4764 44.0043L30.4614 43.9743C30.3487 43.6751 30.1433 43.4197 29.8753 43.2454C29.6072 43.0711 29.2904 42.9871 28.9712 43.0055C28.652 43.0239 28.347 43.1439 28.1008 43.3478C27.8545 43.5518 27.6799 43.8291 27.6024 44.1393L27.5934 44.1693L27.5514 44.3103C27.2817 45.1433 26.8795 45.9273 26.3604 46.6323C25.4454 47.8623 23.9844 49.0293 21.5754 48.9993C21.3784 48.997 21.1829 49.0334 21 49.1066" stroke="black"/>
<path d="M59 41V6H54V46.5" stroke="black"/>
<path d="M1 41V6H6V46.5" stroke="black"/>
<path d="M8.5 11.5H51.5" stroke="black"/>
<path d="M12 24V18H25V27" stroke="black"/>
<path d="M12.5 43.5C14.3333 28.3333 19.3 7.09999 24.5 43.5" stroke="black"/>
<path d="M27 27H21" stroke="black"/>
<path d="M10 27H16" stroke="black"/>
<path d="M47 24V18H34V27" stroke="black"/>
<path d="M46.5 43.5C44.6667 28.3333 39.7 7.09999 34.5 43.5" stroke="black"/>
<path d="M32 27H38" stroke="black"/>
<path d="M49 27H43" stroke="black"/>
</g>
<defs>
<clipPath id="clip0_1_8">
<rect width="60" height="60" fill="white"/>
</clipPath>
</defs>
</svg>
