<svg width="60" height="60" viewBox="0 0 60 60" fill="none" xmlns="http://www.w3.org/2000/svg">
<g clip-path="url(#clip0_3_100)">
<mask id="path-1-inside-1_3_100" fill="white">
<path d="M2.30842 0.164062C0.339675 0.890625 -0.527513 2.97656 0.398268 4.75781C0.550612 5.07422 1.08967 5.77734 1.57014 6.31641L2.46077 7.30078V11.5898V15.8789L2.03889 16.2188C0.550612 17.4023 1.45296 19.8047 3.38655 19.8047C3.89046 19.8047 4.69905 19.3359 4.86311 18.9492C5.17952 18.1992 4.55842 17.5078 3.83186 17.8008C3.2928 18.0117 3.11702 18.0117 3.07014 17.7891C3.04671 17.6484 3.16389 17.5312 3.44514 17.4141C4.14827 17.1211 4.15999 17.0625 4.21858 13.0312L4.27717 9.36328L7.38264 12.8906C9.09358 14.8359 10.4881 16.5 10.4764 16.5938C10.4764 16.6875 10.4647 19.1836 10.453 22.1484L10.4295 27.5391H7.67561C4.92171 27.5391 4.90999 27.5391 4.62874 27.8203C4.25374 28.1953 4.19514 28.6172 4.24202 30.5039C4.27717 32.0742 4.28889 32.1094 4.6053 32.4258C4.89827 32.7188 5.01546 32.7539 5.9178 32.7891L6.90217 32.8359L6.93733 34.7578C6.97249 36.6562 6.97249 36.6797 7.28889 36.9844C7.53499 37.2305 7.74592 37.3125 8.24983 37.3594L8.90608 37.4062V38.0391V38.6719H8.07405C7.31233 38.6719 7.21858 38.6953 6.90217 39.0117L6.56233 39.3516V43.8867C6.56233 48.1641 6.55061 48.4219 6.36311 48.3398C5.23811 47.8945 1.7928 47.3555 0.995925 47.5078C0.76155 47.5547 0.4803 47.7305 0.304518 47.9414L-0.000169171 48.3047V53.5078C-0.000169171 59.1445 -0.0118879 59.0391 0.644362 59.6484L0.960768 59.9414H29.9998H59.0389L59.3553 59.6484C60.0115 59.0391 59.9998 59.1445 59.9998 53.5078V48.2812L59.66 47.9062C59.3436 47.543 59.2615 47.5195 58.5115 47.5078L57.7147 47.4961L57.6912 43.4648C57.6678 40.7695 57.6092 39.3516 57.5272 39.1875C57.3397 38.8125 56.9178 38.6719 56.074 38.6719H55.3123V38.0273V37.3828H55.7694C56.0155 37.3828 56.3787 37.3242 56.5897 37.2539C57.2108 37.0312 57.3045 36.6914 57.3045 34.6289V32.8125H58.1131C59.8475 32.8125 59.9998 32.6016 59.9998 30.0586V28.2188L59.66 27.8789L59.3201 27.5391H57.0936H54.8787L54.6795 26.0742C54.4686 24.6211 54.4686 24.6094 54.7147 24.3047C55.1483 23.7539 54.9842 23.0391 54.3631 22.8281C54.2225 22.7695 54.117 22.3242 53.9295 20.9766C53.6717 19.1953 53.6717 19.1953 53.9061 18.9023C54.2576 18.457 54.2108 18.0117 53.7655 17.6367C53.4139 17.3438 53.3905 17.2617 53.1326 15.5508C52.8865 13.9102 52.8865 13.7578 53.0623 13.5586C53.367 13.2188 53.3084 12.5508 52.9334 12.2578C52.6522 12.0352 52.6053 11.8594 52.3709 10.3125C52.1717 9.05859 52.1483 8.61328 52.2537 8.57812C52.6053 8.46094 52.7342 7.86328 52.7342 6.26953C52.7342 4.19531 52.6405 3.99609 51.6209 3.84375C51.3983 3.80859 51.3865 3.70312 51.3631 2.34375C51.328 0.539062 51.2928 0.398438 50.8592 0.175781C50.4139 -0.046875 47.6717 -0.0703125 47.2264 0.152344C46.7928 0.363281 46.6522 0.949219 46.6522 2.48438L46.6405 3.86719H46.3006C46.1131 3.86719 45.8436 3.97266 45.6912 4.08984C45.4217 4.3125 45.41 4.35938 45.41 6.26953C45.41 8.16797 45.4217 8.22656 45.6795 8.4375L45.949 8.66016L45.703 10.3359C45.4803 11.8711 45.4334 12.0234 45.1522 12.2578C44.7772 12.5508 44.7186 13.2188 45.0233 13.5586C45.1873 13.7461 45.1873 13.9219 44.953 15.5508C44.6951 17.2617 44.6834 17.332 44.3201 17.6367C43.8748 18.0117 43.828 18.457 44.1795 18.9023C44.4139 19.1953 44.4139 19.1953 44.1561 20.9766C43.9686 22.3242 43.8631 22.7695 43.7225 22.8281C43.0897 23.0391 42.9139 23.8359 43.3709 24.3281L43.617 24.5977L43.4061 26.0625L43.1951 27.5391H42.5155H41.8358V23.9531V20.3672L41.4959 20.0273L41.1561 19.6875H39.2108H37.2655V18.1758V16.6641L36.9022 16.3594C36.6092 16.1133 36.4217 16.0547 35.9061 16.0547H35.2733V14.7773C35.2733 13.582 35.2498 13.4648 34.992 13.1602L34.7108 12.832L31.1014 12.7969C28.5233 12.7734 27.3983 12.8086 27.1639 12.9023C26.6248 13.125 26.4842 13.5469 26.4842 14.8828V16.0547H23.5076H20.5311L20.4139 15.3633C20.2615 14.5078 19.8514 13.6875 19.2655 13.043C19.0076 12.7734 16.2772 10.3359 13.1834 7.61719C10.0897 4.89844 7.0428 2.21484 6.42171 1.65234C5.78889 1.10156 5.03889 0.515625 4.73421 0.351562C4.06624 0.0117188 2.96467 -0.0820312 2.30842 0.164062ZM3.99592 1.93359C4.74592 2.33203 5.01546 3.33984 4.57014 4.06641C3.94905 5.08594 2.37874 5.00391 1.92171 3.92578C1.69905 3.38672 1.71077 3.07031 1.96858 2.58984C2.36702 1.86328 3.26936 1.57031 3.99592 1.93359ZM49.5701 2.82422V3.87891L49.0194 3.84375L48.4569 3.80859L48.4217 2.77734L48.3865 1.75781H48.9842H49.5701V2.82422ZM6.42171 7.95703L6.38655 9.11719L5.34358 7.92188C4.76936 7.26562 4.27717 6.66797 4.25374 6.60938C4.2303 6.53906 4.42952 6.38672 4.68733 6.26953C5.20296 6.03516 6.12874 5.12109 6.28108 4.67578C6.39827 4.34766 6.46858 6.07031 6.42171 7.95703ZM11.2498 8.27344L13.7576 10.4883L11.1326 10.5234C9.67952 10.5352 8.43733 10.5234 8.3553 10.5C8.23811 10.4531 8.20296 9.86719 8.20296 8.01562V5.58984L8.47249 5.82422C8.61311 5.95312 9.86702 7.05469 11.2498 8.27344ZM50.9764 6.26953V6.91406H49.0428H47.1092V6.26953V5.625H49.0428H50.9764V6.26953ZM48.1639 10.3711V12.0703H47.6951C47.2147 12.0703 47.2147 12.0703 47.285 11.6836C47.3201 11.4844 47.4256 10.7578 47.5194 10.0898C47.7186 8.76562 47.742 8.67188 47.9998 8.67188C48.1287 8.67188 48.1639 8.96484 48.1639 10.3711ZM50.5194 9.90234C50.6248 10.5469 50.742 11.2969 50.7889 11.5664L50.8592 12.0703H50.3905H49.9217V10.3594C49.9217 8.80078 49.9334 8.66016 50.1326 8.69531C50.285 8.73047 50.367 8.97656 50.5194 9.90234ZM13.1717 12.75C12.4803 13.3828 12.3162 13.6055 12.0115 14.3789C11.8592 14.7539 11.6834 15.0352 11.6365 15C11.5545 14.9531 10.992 14.3203 9.44514 12.5625L9.22249 12.3047H11.4373H13.6522L13.1717 12.75ZM16.8045 13.5234C17.824 13.8281 18.4569 14.5664 18.6912 15.668L18.7733 16.0547H16.0662C14.578 16.0547 13.3592 16.0078 13.3592 15.9609C13.3592 15.9023 13.4412 15.5977 13.535 15.2695C13.7576 14.5078 14.4725 13.7695 15.2225 13.5469C15.9256 13.3242 16.1365 13.3242 16.8045 13.5234ZM48.1639 15.6445V17.4609H47.3436C46.3826 17.4609 46.4178 17.5898 46.699 15.6211C46.9803 13.6875 46.91 13.8281 47.578 13.8281H48.1639V15.6445ZM51.1522 14.2031C51.3748 15.5156 51.5623 16.8633 51.5623 17.1328C51.5623 17.4609 51.5623 17.4609 50.742 17.4609H49.9217V15.6445V13.8281H50.5076C51.0701 13.8281 51.0819 13.8398 51.1522 14.2031ZM33.5155 15.293V16.0547H30.8787H28.242V15.293V14.5312H30.8787H33.5155V15.293ZM35.5076 18.75V19.6875H32.0623H28.6053L28.3709 19.9922C28.0428 20.4023 28.0662 20.8008 28.4178 21.1523L28.699 21.4453H34.3944H40.078V24.4922V27.5391H31.8162H23.5545V24.4922V21.4453H24.3748C25.1014 21.4453 25.242 21.4102 25.4881 21.1523C25.8631 20.7891 25.8631 20.3438 25.4881 19.9805C25.2186 19.6992 25.1365 19.6875 23.8123 19.6875C22.6053 19.6875 22.3709 19.7227 22.1365 19.9102L21.8553 20.1328L21.8201 23.8359L21.785 27.5391H16.992H12.1873V22.6758V17.8125H23.8475H35.5076V18.75ZM48.1639 20.9766V22.7344H46.9334C46.0311 22.7344 45.703 22.6992 45.703 22.582C45.703 22.5117 45.8084 21.75 45.9373 20.918C46.0662 20.0742 46.1717 19.3594 46.1717 19.3008C46.1717 19.2539 46.617 19.2188 47.1678 19.2188H48.1639V20.9766ZM51.9139 19.3008C51.9139 19.3594 52.0194 20.0742 52.1483 20.918C52.2772 21.75 52.3826 22.5117 52.3826 22.582C52.3826 22.6992 52.0545 22.7344 51.1522 22.7344H49.9217V20.9766V19.2188H50.9178C51.4686 19.2188 51.9139 19.2539 51.9139 19.3008ZM48.1639 26.0156V27.5391H46.5819C45.6326 27.5391 44.9998 27.4922 44.9998 27.4219C44.9998 27.2344 45.3631 24.7969 45.41 24.6328C45.4451 24.5273 45.8319 24.4922 46.8162 24.4922H48.1639V26.0156ZM52.8748 25.8398C52.9803 26.543 53.074 27.2227 53.074 27.3281C53.0858 27.5156 52.9334 27.5391 51.5037 27.5391H49.9217V26.0156V24.4805L51.3045 24.5156L52.6756 24.5508L52.8748 25.8398ZM58.242 30.1758V31.0547L32.1444 31.0312L6.03499 30.9961L5.99983 30.1406L5.96467 29.2969H32.1092H58.242V30.1758ZM55.5467 34.2188V35.625H39.2694H22.9803L22.7459 35.9297C22.4178 36.3516 22.4412 36.6328 22.8397 37.043L23.1795 37.3828H35.1444H47.1092V38.0273V38.6719H46.2772C45.5155 38.6719 45.4217 38.6953 45.1053 39.0117L44.7655 39.3516V45.1641C44.7655 50.7539 44.7537 50.9766 44.5428 50.9766C44.4256 50.9766 44.1912 51.082 44.0155 51.2227C43.6053 51.5391 43.5936 52.125 44.0037 52.5C44.285 52.7578 44.3319 52.7695 45.7264 52.6992C48.0936 52.5703 49.2889 52.2422 52.1951 50.918C54.6561 49.8047 55.7928 49.4648 57.6912 49.3008L58.242 49.2422V53.7422V58.2422H29.9998H1.75764V53.7422V49.2422L2.32014 49.3008C4.20686 49.4648 5.34358 49.8047 7.7928 50.918C11.1912 52.4648 12.117 52.6758 15.5272 52.6758C18.9256 52.6641 19.7459 52.4531 23.8475 50.5898C26.1326 49.5469 28.3944 49.1133 30.867 49.2656C33.1756 49.4062 34.3709 49.7344 36.9608 50.9414C39.0936 51.9492 40.1248 52.2773 40.5701 52.125C40.9451 51.9961 41.1326 51.7148 41.1326 51.3047C41.1209 50.8594 40.8631 50.6484 39.8905 50.2852C39.3865 50.0977 38.3319 49.6523 37.5584 49.2773C34.5819 47.8828 33.0936 47.5312 29.9998 47.5312C26.9061 47.5312 25.4178 47.8828 22.4412 49.2773C21.2459 49.8398 19.6522 50.5078 19.4998 50.5078C19.4764 50.5078 19.453 47.9883 19.453 44.9062C19.4412 40.6992 19.4061 39.2695 19.3006 39.1289C19.0428 38.8008 18.6561 38.6719 17.8826 38.6719H17.1092V38.0391V37.4062L18.41 37.3594C19.6053 37.3242 19.7225 37.3008 19.9334 37.043C20.1912 36.7148 20.2264 36.2344 19.992 35.9062C19.828 35.6953 19.5936 35.6836 14.2733 35.625L8.7303 35.5664L8.69514 34.1836L8.65999 32.8125H32.1092H55.5467V34.2188ZM15.3514 38.0273V38.6719H13.0076H10.6639V38.0273V37.3828H13.0076H15.3514V38.0273ZM53.5545 38.0273V38.6719H51.2108H48.867V38.0273V37.3828H51.2108H53.5545V38.0273ZM17.6951 45.6328V50.8477L17.1444 50.9297C16.8514 50.9766 15.785 50.9766 14.7772 50.9414C12.6326 50.8711 11.3905 50.5898 9.55061 49.7812L8.37874 49.2656L8.34358 44.8477L8.32014 40.4297H13.0076H17.6951V45.6328ZM55.8983 44.1094V47.7773L55.4061 47.8594C54.5858 47.9883 53.2967 48.4688 51.4451 49.3359C49.6639 50.168 48.1873 50.6719 47.1092 50.8125L46.5233 50.8945V45.6562V40.4297H51.2108H55.8983V44.1094Z"/>
</mask>
<path d="M2.30842 0.164062C0.339675 0.890625 -0.527513 2.97656 0.398268 4.75781C0.550612 5.07422 1.08967 5.77734 1.57014 6.31641L2.46077 7.30078V11.5898V15.8789L2.03889 16.2188C0.550612 17.4023 1.45296 19.8047 3.38655 19.8047C3.89046 19.8047 4.69905 19.3359 4.86311 18.9492C5.17952 18.1992 4.55842 17.5078 3.83186 17.8008C3.2928 18.0117 3.11702 18.0117 3.07014 17.7891C3.04671 17.6484 3.16389 17.5312 3.44514 17.4141C4.14827 17.1211 4.15999 17.0625 4.21858 13.0312L4.27717 9.36328L7.38264 12.8906C9.09358 14.8359 10.4881 16.5 10.4764 16.5938C10.4764 16.6875 10.4647 19.1836 10.453 22.1484L10.4295 27.5391H7.67561C4.92171 27.5391 4.90999 27.5391 4.62874 27.8203C4.25374 28.1953 4.19514 28.6172 4.24202 30.5039C4.27717 32.0742 4.28889 32.1094 4.6053 32.4258C4.89827 32.7188 5.01546 32.7539 5.9178 32.7891L6.90217 32.8359L6.93733 34.7578C6.97249 36.6562 6.97249 36.6797 7.28889 36.9844C7.53499 37.2305 7.74592 37.3125 8.24983 37.3594L8.90608 37.4062V38.0391V38.6719H8.07405C7.31233 38.6719 7.21858 38.6953 6.90217 39.0117L6.56233 39.3516V43.8867C6.56233 48.1641 6.55061 48.4219 6.36311 48.3398C5.23811 47.8945 1.7928 47.3555 0.995925 47.5078C0.76155 47.5547 0.4803 47.7305 0.304518 47.9414L-0.000169171 48.3047V53.5078C-0.000169171 59.1445 -0.0118879 59.0391 0.644362 59.6484L0.960768 59.9414H29.9998H59.0389L59.3553 59.6484C60.0115 59.0391 59.9998 59.1445 59.9998 53.5078V48.2812L59.66 47.9062C59.3436 47.543 59.2615 47.5195 58.5115 47.5078L57.7147 47.4961L57.6912 43.4648C57.6678 40.7695 57.6092 39.3516 57.5272 39.1875C57.3397 38.8125 56.9178 38.6719 56.074 38.6719H55.3123V38.0273V37.3828H55.7694C56.0155 37.3828 56.3787 37.3242 56.5897 37.2539C57.2108 37.0312 57.3045 36.6914 57.3045 34.6289V32.8125H58.1131C59.8475 32.8125 59.9998 32.6016 59.9998 30.0586V28.2188L59.66 27.8789L59.3201 27.5391H57.0936H54.8787L54.6795 26.0742C54.4686 24.6211 54.4686 24.6094 54.7147 24.3047C55.1483 23.7539 54.9842 23.0391 54.3631 22.8281C54.2225 22.7695 54.117 22.3242 53.9295 20.9766C53.6717 19.1953 53.6717 19.1953 53.9061 18.9023C54.2576 18.457 54.2108 18.0117 53.7655 17.6367C53.4139 17.3438 53.3905 17.2617 53.1326 15.5508C52.8865 13.9102 52.8865 13.7578 53.0623 13.5586C53.367 13.2188 53.3084 12.5508 52.9334 12.2578C52.6522 12.0352 52.6053 11.8594 52.3709 10.3125C52.1717 9.05859 52.1483 8.61328 52.2537 8.57812C52.6053 8.46094 52.7342 7.86328 52.7342 6.26953C52.7342 4.19531 52.6405 3.99609 51.6209 3.84375C51.3983 3.80859 51.3865 3.70312 51.3631 2.34375C51.328 0.539062 51.2928 0.398438 50.8592 0.175781C50.4139 -0.046875 47.6717 -0.0703125 47.2264 0.152344C46.7928 0.363281 46.6522 0.949219 46.6522 2.48438L46.6405 3.86719H46.3006C46.1131 3.86719 45.8436 3.97266 45.6912 4.08984C45.4217 4.3125 45.41 4.35938 45.41 6.26953C45.41 8.16797 45.4217 8.22656 45.6795 8.4375L45.949 8.66016L45.703 10.3359C45.4803 11.8711 45.4334 12.0234 45.1522 12.2578C44.7772 12.5508 44.7186 13.2188 45.0233 13.5586C45.1873 13.7461 45.1873 13.9219 44.953 15.5508C44.6951 17.2617 44.6834 17.332 44.3201 17.6367C43.8748 18.0117 43.828 18.457 44.1795 18.9023C44.4139 19.1953 44.4139 19.1953 44.1561 20.9766C43.9686 22.3242 43.8631 22.7695 43.7225 22.8281C43.0897 23.0391 42.9139 23.8359 43.3709 24.3281L43.617 24.5977L43.4061 26.0625L43.1951 27.5391H42.5155H41.8358V23.9531V20.3672L41.4959 20.0273L41.1561 19.6875H39.2108H37.2655V18.1758V16.6641L36.9022 16.3594C36.6092 16.1133 36.4217 16.0547 35.9061 16.0547H35.2733V14.7773C35.2733 13.582 35.2498 13.4648 34.992 13.1602L34.7108 12.832L31.1014 12.7969C28.5233 12.7734 27.3983 12.8086 27.1639 12.9023C26.6248 13.125 26.4842 13.5469 26.4842 14.8828V16.0547H23.5076H20.5311L20.4139 15.3633C20.2615 14.5078 19.8514 13.6875 19.2655 13.043C19.0076 12.7734 16.2772 10.3359 13.1834 7.61719C10.0897 4.89844 7.0428 2.21484 6.42171 1.65234C5.78889 1.10156 5.03889 0.515625 4.73421 0.351562C4.06624 0.0117188 2.96467 -0.0820312 2.30842 0.164062ZM3.99592 1.93359C4.74592 2.33203 5.01546 3.33984 4.57014 4.06641C3.94905 5.08594 2.37874 5.00391 1.92171 3.92578C1.69905 3.38672 1.71077 3.07031 1.96858 2.58984C2.36702 1.86328 3.26936 1.57031 3.99592 1.93359ZM49.5701 2.82422V3.87891L49.0194 3.84375L48.4569 3.80859L48.4217 2.77734L48.3865 1.75781H48.9842H49.5701V2.82422ZM6.42171 7.95703L6.38655 9.11719L5.34358 7.92188C4.76936 7.26562 4.27717 6.66797 4.25374 6.60938C4.2303 6.53906 4.42952 6.38672 4.68733 6.26953C5.20296 6.03516 6.12874 5.12109 6.28108 4.67578C6.39827 4.34766 6.46858 6.07031 6.42171 7.95703ZM11.2498 8.27344L13.7576 10.4883L11.1326 10.5234C9.67952 10.5352 8.43733 10.5234 8.3553 10.5C8.23811 10.4531 8.20296 9.86719 8.20296 8.01562V5.58984L8.47249 5.82422C8.61311 5.95312 9.86702 7.05469 11.2498 8.27344ZM50.9764 6.26953V6.91406H49.0428H47.1092V6.26953V5.625H49.0428H50.9764V6.26953ZM48.1639 10.3711V12.0703H47.6951C47.2147 12.0703 47.2147 12.0703 47.285 11.6836C47.3201 11.4844 47.4256 10.7578 47.5194 10.0898C47.7186 8.76562 47.742 8.67188 47.9998 8.67188C48.1287 8.67188 48.1639 8.96484 48.1639 10.3711ZM50.5194 9.90234C50.6248 10.5469 50.742 11.2969 50.7889 11.5664L50.8592 12.0703H50.3905H49.9217V10.3594C49.9217 8.80078 49.9334 8.66016 50.1326 8.69531C50.285 8.73047 50.367 8.97656 50.5194 9.90234ZM13.1717 12.75C12.4803 13.3828 12.3162 13.6055 12.0115 14.3789C11.8592 14.7539 11.6834 15.0352 11.6365 15C11.5545 14.9531 10.992 14.3203 9.44514 12.5625L9.22249 12.3047H11.4373H13.6522L13.1717 12.75ZM16.8045 13.5234C17.824 13.8281 18.4569 14.5664 18.6912 15.668L18.7733 16.0547H16.0662C14.578 16.0547 13.3592 16.0078 13.3592 15.9609C13.3592 15.9023 13.4412 15.5977 13.535 15.2695C13.7576 14.5078 14.4725 13.7695 15.2225 13.5469C15.9256 13.3242 16.1365 13.3242 16.8045 13.5234ZM48.1639 15.6445V17.4609H47.3436C46.3826 17.4609 46.4178 17.5898 46.699 15.6211C46.9803 13.6875 46.91 13.8281 47.578 13.8281H48.1639V15.6445ZM51.1522 14.2031C51.3748 15.5156 51.5623 16.8633 51.5623 17.1328C51.5623 17.4609 51.5623 17.4609 50.742 17.4609H49.9217V15.6445V13.8281H50.5076C51.0701 13.8281 51.0819 13.8398 51.1522 14.2031ZM33.5155 15.293V16.0547H30.8787H28.242V15.293V14.5312H30.8787H33.5155V15.293ZM35.5076 18.75V19.6875H32.0623H28.6053L28.3709 19.9922C28.0428 20.4023 28.0662 20.8008 28.4178 21.1523L28.699 21.4453H34.3944H40.078V24.4922V27.5391H31.8162H23.5545V24.4922V21.4453H24.3748C25.1014 21.4453 25.242 21.4102 25.4881 21.1523C25.8631 20.7891 25.8631 20.3438 25.4881 19.9805C25.2186 19.6992 25.1365 19.6875 23.8123 19.6875C22.6053 19.6875 22.3709 19.7227 22.1365 19.9102L21.8553 20.1328L21.8201 23.8359L21.785 27.5391H16.992H12.1873V22.6758V17.8125H23.8475H35.5076V18.75ZM48.1639 20.9766V22.7344H46.9334C46.0311 22.7344 45.703 22.6992 45.703 22.582C45.703 22.5117 45.8084 21.75 45.9373 20.918C46.0662 20.0742 46.1717 19.3594 46.1717 19.3008C46.1717 19.2539 46.617 19.2188 47.1678 19.2188H48.1639V20.9766ZM51.9139 19.3008C51.9139 19.3594 52.0194 20.0742 52.1483 20.918C52.2772 21.75 52.3826 22.5117 52.3826 22.582C52.3826 22.6992 52.0545 22.7344 51.1522 22.7344H49.9217V20.9766V19.2188H50.9178C51.4686 19.2188 51.9139 19.2539 51.9139 19.3008ZM48.1639 26.0156V27.5391H46.5819C45.6326 27.5391 44.9998 27.4922 44.9998 27.4219C44.9998 27.2344 45.3631 24.7969 45.41 24.6328C45.4451 24.5273 45.8319 24.4922 46.8162 24.4922H48.1639V26.0156ZM52.8748 25.8398C52.9803 26.543 53.074 27.2227 53.074 27.3281C53.0858 27.5156 52.9334 27.5391 51.5037 27.5391H49.9217V26.0156V24.4805L51.3045 24.5156L52.6756 24.5508L52.8748 25.8398ZM58.242 30.1758V31.0547L32.1444 31.0312L6.03499 30.9961L5.99983 30.1406L5.96467 29.2969H32.1092H58.242V30.1758ZM55.5467 34.2188V35.625H39.2694H22.9803L22.7459 35.9297C22.4178 36.3516 22.4412 36.6328 22.8397 37.043L23.1795 37.3828H35.1444H47.1092V38.0273V38.6719H46.2772C45.5155 38.6719 45.4217 38.6953 45.1053 39.0117L44.7655 39.3516V45.1641C44.7655 50.7539 44.7537 50.9766 44.5428 50.9766C44.4256 50.9766 44.1912 51.082 44.0155 51.2227C43.6053 51.5391 43.5936 52.125 44.0037 52.5C44.285 52.7578 44.3319 52.7695 45.7264 52.6992C48.0936 52.5703 49.2889 52.2422 52.1951 50.918C54.6561 49.8047 55.7928 49.4648 57.6912 49.3008L58.242 49.2422V53.7422V58.2422H29.9998H1.75764V53.7422V49.2422L2.32014 49.3008C4.20686 49.4648 5.34358 49.8047 7.7928 50.918C11.1912 52.4648 12.117 52.6758 15.5272 52.6758C18.9256 52.6641 19.7459 52.4531 23.8475 50.5898C26.1326 49.5469 28.3944 49.1133 30.867 49.2656C33.1756 49.4062 34.3709 49.7344 36.9608 50.9414C39.0936 51.9492 40.1248 52.2773 40.5701 52.125C40.9451 51.9961 41.1326 51.7148 41.1326 51.3047C41.1209 50.8594 40.8631 50.6484 39.8905 50.2852C39.3865 50.0977 38.3319 49.6523 37.5584 49.2773C34.5819 47.8828 33.0936 47.5312 29.9998 47.5312C26.9061 47.5312 25.4178 47.8828 22.4412 49.2773C21.2459 49.8398 19.6522 50.5078 19.4998 50.5078C19.4764 50.5078 19.453 47.9883 19.453 44.9062C19.4412 40.6992 19.4061 39.2695 19.3006 39.1289C19.0428 38.8008 18.6561 38.6719 17.8826 38.6719H17.1092V38.0391V37.4062L18.41 37.3594C19.6053 37.3242 19.7225 37.3008 19.9334 37.043C20.1912 36.7148 20.2264 36.2344 19.992 35.9062C19.828 35.6953 19.5936 35.6836 14.2733 35.625L8.7303 35.5664L8.69514 34.1836L8.65999 32.8125H32.1092H55.5467V34.2188ZM15.3514 38.0273V38.6719H13.0076H10.6639V38.0273V37.3828H13.0076H15.3514V38.0273ZM53.5545 38.0273V38.6719H51.2108H48.867V38.0273V37.3828H51.2108H53.5545V38.0273ZM17.6951 45.6328V50.8477L17.1444 50.9297C16.8514 50.9766 15.785 50.9766 14.7772 50.9414C12.6326 50.8711 11.3905 50.5898 9.55061 49.7812L8.37874 49.2656L8.34358 44.8477L8.32014 40.4297H13.0076H17.6951V45.6328ZM55.8983 44.1094V47.7773L55.4061 47.8594C54.5858 47.9883 53.2967 48.4688 51.4451 49.3359C49.6639 50.168 48.1873 50.6719 47.1092 50.8125L46.5233 50.8945V45.6562V40.4297H51.2108H55.8983V44.1094Z" stroke="black" stroke-width="2" mask="url(#path-1-inside-1_3_100)"/>
<path d="M14.759 20.2909L14.7467 20.3006L14.7375 20.307C14.7358 20.3086 14.7283 20.3155 14.7157 20.3303C14.697 20.3524 14.6744 20.3833 14.6503 20.4222C14.6029 20.4988 14.5639 20.5835 14.5419 20.6503L14.5415 20.6518L14.5384 20.666C14.5358 20.6783 14.5329 20.6945 14.5297 20.7151C14.5232 20.7564 14.5165 20.8093 14.51 20.8738C14.4969 21.003 14.4855 21.1668 14.4762 21.3566C14.4577 21.7356 14.4482 22.2024 14.4482 22.6729C14.4482 23.1432 14.4577 23.6116 14.4762 23.9937C14.4959 24.3998 14.524 24.6483 14.5444 24.7222L14.5444 24.7222L14.5449 24.7239C14.5985 24.9206 14.6272 24.9728 14.6447 24.9944C14.6484 24.9991 14.6541 25.0056 14.6716 25.0154C14.6925 25.0271 14.7335 25.0454 14.8102 25.0642C14.9716 25.1039 15.2264 25.1316 15.6478 25.1468C16.0629 25.1618 16.6066 25.1641 17.332 25.1641C18.6263 25.1641 19.2369 25.1634 19.5723 25.1312C19.7328 25.1158 19.7843 25.0964 19.8005 25.0891C19.8146 25.0828 19.8277 25.0762 19.9129 25.0032L20.0664 24.8716V22.6758V20.48L19.9129 20.3484C19.8278 20.2754 19.8149 20.269 19.8009 20.2627C19.7843 20.2553 19.732 20.2359 19.5698 20.2204C19.2312 20.1882 18.6145 20.1875 17.3086 20.1875C16.1605 20.1875 15.5221 20.1966 15.1437 20.2256C14.9549 20.2401 14.8567 20.2579 14.8035 20.2728C14.7671 20.283 14.761 20.2889 14.7594 20.2905C14.7592 20.2907 14.7591 20.2908 14.759 20.2909ZM19.3672 23.9062V24.4062H18.8672H17.2852H15.7031H15.2031V23.9062V22.6758V21.4453V20.9453H15.7031H17.2852H18.8672H19.3672V21.4453V22.6758V23.9062Z" stroke="black"/>
<path d="M26.2012 24.5448L26.2013 24.5449L26.1934 24.5528C26.0803 24.6658 26.0627 24.7416 26.061 24.7799C26.0592 24.82 26.0711 24.9067 26.1834 25.047C26.2219 25.0952 26.2404 25.116 26.2483 25.1245C26.254 25.1262 26.2628 25.1284 26.2757 25.1309C26.4174 25.1586 26.6907 25.1641 27.375 25.1641C27.9804 25.1641 28.2781 25.157 28.4519 25.1313C28.5295 25.1199 28.5535 25.1082 28.5564 25.1068C28.5577 25.1062 28.5591 25.1054 28.5626 25.1028C28.567 25.0994 28.5758 25.0921 28.5918 25.0761C28.7339 24.934 28.7143 24.6628 28.5661 24.5455C28.4948 24.4898 28.4524 24.4648 28.3224 24.4438C28.1507 24.4162 27.8756 24.4062 27.3399 24.4062C26.751 24.4062 26.4984 24.4143 26.3569 24.4422C26.3057 24.4523 26.292 24.4613 26.2892 24.4631C26.2891 24.4631 26.289 24.4632 26.2889 24.4633C26.2798 24.469 26.2599 24.4834 26.2012 24.5448Z" stroke="black"/>
<path d="M31.0685 25.0649L31.0685 25.0649L31.0704 25.0667C31.1016 25.0962 31.1124 25.1013 31.1171 25.1036L31.1174 25.1037C31.1254 25.1075 31.1539 25.1197 31.2327 25.1313C31.4084 25.157 31.7039 25.1641 32.2969 25.1641C32.9698 25.1641 33.2363 25.1585 33.3743 25.1312C33.386 25.1288 33.3941 25.1268 33.3995 25.1253C33.4075 25.1167 33.426 25.0957 33.465 25.047C33.5773 24.9067 33.5892 24.82 33.5874 24.7799C33.5857 24.7416 33.5681 24.6658 33.455 24.5528L33.4549 24.5529L33.4473 24.5448C33.3885 24.4834 33.3686 24.469 33.3595 24.4633C33.3595 24.4632 33.3594 24.4631 33.3592 24.4631C33.3565 24.4613 33.3427 24.4523 33.2915 24.4422C33.1501 24.4143 32.8975 24.4062 32.3086 24.4062C31.7728 24.4062 31.4977 24.4162 31.3261 24.4438C31.1965 24.4647 31.1539 24.4896 31.0832 24.5448C30.9279 24.6694 30.9138 24.9198 31.0685 25.0649ZM33.408 25.1225C33.4079 25.1225 33.4075 25.1227 33.4067 25.123L33.408 25.1225Z" stroke="black"/>
<path d="M35.8361 24.8035C35.8309 24.9574 35.8904 25.0451 35.9427 25.0808C35.9533 25.0834 35.9719 25.0875 36.0004 25.0925C36.0699 25.1047 36.1669 25.1171 36.2872 25.1281C36.5266 25.1499 36.8336 25.1641 37.1484 25.1641C37.4632 25.1641 37.7701 25.1499 38.0096 25.1281C38.1299 25.1171 38.2269 25.1047 38.2963 25.0925C38.324 25.0876 38.3422 25.0836 38.353 25.0811C38.4125 25.0403 38.4689 24.9496 38.4611 24.8028C38.4528 24.646 38.3749 24.5371 38.284 24.4934C38.2833 24.4936 38.2583 24.4855 38.1955 24.475C38.1246 24.4631 38.031 24.4521 37.9178 24.4431C37.692 24.4251 37.4126 24.4165 37.1289 24.418C36.8452 24.4194 36.5664 24.4307 36.342 24.4508C36.2294 24.4608 36.1366 24.4725 36.0667 24.4849C36.0154 24.494 35.9904 24.5011 35.9836 24.5028C35.9151 24.5413 35.8415 24.6424 35.8361 24.8035Z" stroke="black"/>
</g>
<defs>
<clipPath id="clip0_3_100">
<rect width="60" height="60" fill="white"/>
</clipPath>
</defs>
</svg>
