<svg width="60" height="60" viewBox="0 0 60 60" fill="none" xmlns="http://www.w3.org/2000/svg">
<mask id="path-1-inside-1_1_2" fill="white">
<path d="M22.5 6.12C22.1022 6.12 21.7206 6.27804 21.4393 6.55934C21.158 6.84064 21 7.22218 21 7.62V15H13.5C13.1022 15 12.7206 15.158 12.4393 15.4393C12.158 15.7206 12 16.1022 12 16.5V28.689L7.098 30.057C6.88806 30.1157 6.69343 30.2194 6.52767 30.361C6.3619 30.5026 6.22899 30.6786 6.13818 30.8768C6.04738 31.0749 6.00086 31.2905 6.00186 31.5085C6.00286 31.7265 6.05137 31.9417 6.144 32.139L11.55 43.629C12.2101 42.8327 13.1244 42.2882 14.139 42.087L9.612 32.469L28.38 27.24C29.4339 26.9462 30.5481 26.9462 31.602 27.24L50.373 32.469L45.753 42.066C46.7694 42.2349 47.6971 42.7474 48.381 43.518L53.856 32.154C53.9508 31.9563 54.0012 31.7402 54.0035 31.521C54.0057 31.3017 53.9599 31.0846 53.8693 30.885C53.7786 30.6854 53.6453 30.508 53.4787 30.3655C53.3121 30.223 53.1163 30.1187 52.905 30.06L48 28.692V16.5C48 16.1022 47.842 15.7206 47.5607 15.4393C47.2794 15.158 46.8978 15 46.5 15H39V7.617C39 7.21918 38.842 6.83764 38.5607 6.55634C38.2794 6.27503 37.8978 6.117 37.5 6.117L22.5 6.12ZM36 15H24V9.12H36V15ZM45 18V27.855L32.403 24.345C30.8231 23.9049 29.1529 23.9049 27.573 24.345L15 27.858V18H45ZM46.464 46.17L46.455 46.14C46.3775 45.8298 46.2029 45.5525 45.9566 45.3485C45.7104 45.1445 45.4054 45.0246 45.0862 45.0062C44.767 44.9877 44.4502 45.0718 44.1821 45.2461C43.9141 45.4204 43.7087 45.6758 43.596 45.975L43.581 46.005L43.521 46.158C43.1388 47.0179 42.6467 47.8247 42.057 48.558C40.983 49.878 39.492 51 37.5 51C35.508 51 34.014 49.875 32.934 48.552C32.3081 47.776 31.7913 46.9181 31.398 46.002L31.383 45.969C31.2741 45.6847 31.0814 45.4403 30.8303 45.2682C30.5793 45.0961 30.2818 45.0045 29.9774 45.0055C29.673 45.0064 29.3761 45.1 29.1262 45.2737C28.8762 45.4474 28.685 45.6931 28.578 45.978L28.563 46.008L28.503 46.161C28.123 47.0198 27.6329 47.8256 27.045 48.558C25.977 49.878 24.492 51 22.5 51C20.508 51 19.02 49.875 17.946 48.555C17.3216 47.7791 16.8068 46.921 16.416 46.005L16.404 45.975C16.2913 45.6758 16.0859 45.4174 15.8179 45.2431C15.5498 45.0688 15.233 44.9847 14.9138 45.0032C14.5946 45.0216 14.2896 45.1415 14.0434 45.3455C13.7971 45.5495 13.6225 45.8268 13.545 46.137L13.539 46.161L13.497 46.299C13.2231 47.1249 12.819 47.9016 12.3 48.6C11.379 49.83 9.912 51 7.5 51C7.10218 51 6.72064 51.158 6.43934 51.4393C6.15804 51.7206 6 52.1022 6 52.5C6 52.8978 6.15804 53.2794 6.43934 53.5607C6.72064 53.842 7.10218 54 7.5 54C11.088 54 13.371 52.176 14.7 50.4C14.85 50.199 14.994 49.995 15.12 49.797C15.273 50.01 15.438 50.229 15.618 50.448C16.98 52.128 19.242 54 22.5 54C25.758 54 28.014 52.125 29.376 50.445C29.5913 50.1796 29.7955 49.9053 29.988 49.623C30.177 49.893 30.384 50.172 30.609 50.451C31.98 52.131 34.242 54 37.5 54C40.758 54 43.02 52.128 44.382 50.448C44.556 50.235 44.718 50.022 44.868 49.812C44.997 50.013 45.138 50.22 45.288 50.424C46.62 52.212 48.909 54.045 52.518 54C52.715 53.9976 52.9096 53.9565 53.0906 53.8789C53.2717 53.8014 53.4358 53.6889 53.5734 53.5479C53.711 53.407 53.8195 53.2403 53.8927 53.0574C53.9659 52.8745 54.0024 52.679 54 52.482C53.9976 52.285 53.9565 52.0904 53.8789 51.9094C53.8014 51.7283 53.6889 51.5642 53.5479 51.4266C53.407 51.289 53.2403 51.1805 53.0574 51.1073C52.8745 51.0341 52.679 50.9976 52.482 51C50.073 51.03 48.612 49.863 47.697 48.633C47.1779 47.928 46.7757 47.1439 46.506 46.311L46.464 46.17Z"/>
</mask>
<path d="M22.5 6.12C22.1022 6.12 21.7206 6.27804 21.4393 6.55934C21.158 6.84064 21 7.22218 21 7.62V15H13.5C13.1022 15 12.7206 15.158 12.4393 15.4393C12.158 15.7206 12 16.1022 12 16.5V28.689L7.098 30.057C6.88806 30.1157 6.69343 30.2194 6.52767 30.361C6.3619 30.5026 6.22899 30.6786 6.13818 30.8768C6.04738 31.0749 6.00086 31.2905 6.00186 31.5085C6.00286 31.7265 6.05137 31.9417 6.144 32.139L11.55 43.629C12.2101 42.8327 13.1244 42.2882 14.139 42.087L9.612 32.469L28.38 27.24C29.4339 26.9462 30.5481 26.9462 31.602 27.24L50.373 32.469L45.753 42.066C46.7694 42.2349 47.6971 42.7474 48.381 43.518L53.856 32.154C53.9508 31.9563 54.0012 31.7402 54.0035 31.521C54.0057 31.3017 53.9599 31.0846 53.8693 30.885C53.7786 30.6854 53.6453 30.508 53.4787 30.3655C53.3121 30.223 53.1163 30.1187 52.905 30.06L48 28.692V16.5C48 16.1022 47.842 15.7206 47.5607 15.4393C47.2794 15.158 46.8978 15 46.5 15H39V7.617C39 7.21918 38.842 6.83764 38.5607 6.55634C38.2794 6.27503 37.8978 6.117 37.5 6.117L22.5 6.12ZM36 15H24V9.12H36V15ZM45 18V27.855L32.403 24.345C30.8231 23.9049 29.1529 23.9049 27.573 24.345L15 27.858V18H45ZM46.464 46.17L46.455 46.14C46.3775 45.8298 46.2029 45.5525 45.9566 45.3485C45.7104 45.1445 45.4054 45.0246 45.0862 45.0062C44.767 44.9877 44.4502 45.0718 44.1821 45.2461C43.9141 45.4204 43.7087 45.6758 43.596 45.975L43.581 46.005L43.521 46.158C43.1388 47.0179 42.6467 47.8247 42.057 48.558C40.983 49.878 39.492 51 37.5 51C35.508 51 34.014 49.875 32.934 48.552C32.3081 47.776 31.7913 46.9181 31.398 46.002L31.383 45.969C31.2741 45.6847 31.0814 45.4403 30.8303 45.2682C30.5793 45.0961 30.2818 45.0045 29.9774 45.0055C29.673 45.0064 29.3761 45.1 29.1262 45.2737C28.8762 45.4474 28.685 45.6931 28.578 45.978L28.563 46.008L28.503 46.161C28.123 47.0198 27.6329 47.8256 27.045 48.558C25.977 49.878 24.492 51 22.5 51C20.508 51 19.02 49.875 17.946 48.555C17.3216 47.7791 16.8068 46.921 16.416 46.005L16.404 45.975C16.2913 45.6758 16.0859 45.4174 15.8179 45.2431C15.5498 45.0688 15.233 44.9847 14.9138 45.0032C14.5946 45.0216 14.2896 45.1415 14.0434 45.3455C13.7971 45.5495 13.6225 45.8268 13.545 46.137L13.539 46.161L13.497 46.299C13.2231 47.1249 12.819 47.9016 12.3 48.6C11.379 49.83 9.912 51 7.5 51C7.10218 51 6.72064 51.158 6.43934 51.4393C6.15804 51.7206 6 52.1022 6 52.5C6 52.8978 6.15804 53.2794 6.43934 53.5607C6.72064 53.842 7.10218 54 7.5 54C11.088 54 13.371 52.176 14.7 50.4C14.85 50.199 14.994 49.995 15.12 49.797C15.273 50.01 15.438 50.229 15.618 50.448C16.98 52.128 19.242 54 22.5 54C25.758 54 28.014 52.125 29.376 50.445C29.5913 50.1796 29.7955 49.9053 29.988 49.623C30.177 49.893 30.384 50.172 30.609 50.451C31.98 52.131 34.242 54 37.5 54C40.758 54 43.02 52.128 44.382 50.448C44.556 50.235 44.718 50.022 44.868 49.812C44.997 50.013 45.138 50.22 45.288 50.424C46.62 52.212 48.909 54.045 52.518 54C52.715 53.9976 52.9096 53.9565 53.0906 53.8789C53.2717 53.8014 53.4358 53.6889 53.5734 53.5479C53.711 53.407 53.8195 53.2403 53.8927 53.0574C53.9659 52.8745 54.0024 52.679 54 52.482C53.9976 52.285 53.9565 52.0904 53.8789 51.9094C53.8014 51.7283 53.6889 51.5642 53.5479 51.4266C53.407 51.289 53.2403 51.1805 53.0574 51.1073C52.8745 51.0341 52.679 50.9976 52.482 51C50.073 51.03 48.612 49.863 47.697 48.633C47.1779 47.928 46.7757 47.1439 46.506 46.311L46.464 46.17Z" stroke="black" stroke-width="2" mask="url(#path-1-inside-1_1_2)"/>
</svg>
