<svg width="60" height="60" viewBox="0 0 60 60" fill="none" xmlns="http://www.w3.org/2000/svg">
<mask id="path-1-inside-1_3_107" fill="white">
<path d="M32.0859 3.36328C31.8984 3.41015 13.7461 22.6992 12.9727 23.6602L12.6445 24.0703L12.668 26.332L12.6914 28.6055L7.07812 34.5937C3.99609 37.8867 1.26562 40.8164 1.03125 41.1094L0.585938 41.625V43.7695C0.585938 44.9531 0.621094 46.0078 0.65625 46.1016C0.808594 46.5 1.20703 46.582 3.42188 46.6406L5.625 46.6992L3.42188 49.043C2.21484 50.3437 1.08984 51.5742 0.914062 51.7852L0.585938 52.1719V54.3164C0.585938 55.5 0.621094 56.5547 0.65625 56.6602C0.867188 57.1875 0.878906 57.1875 10.043 57.1875H18.6914L19.957 55.8867L21.2109 54.5742V55.5234C21.2109 56.0391 21.2461 56.5547 21.2812 56.6602C21.4922 57.1875 21.5156 57.1875 30.5859 57.1875C36.1875 57.1875 39.2344 57.1406 39.375 57.0703C39.6562 56.918 58.4062 36.9141 58.5938 36.5742C58.6875 36.3984 58.7109 35.6367 58.6875 34.1602C58.6523 32.2734 58.6289 31.9687 58.4414 31.793C58.2656 31.6055 57.9375 31.5703 55.9102 31.5234L53.5898 31.4648L55.8047 29.1211C57.0234 27.832 58.1719 26.5664 58.3594 26.3203L58.7109 25.8633V23.707V21.5391L58.3594 21.1875L58.0078 20.8359L53.2031 20.8711C50.5547 20.8945 48.3984 20.8945 48.3984 20.8828C48.3984 20.8594 48.7969 20.4141 49.2773 19.8867L50.1562 18.9492V16.6992C50.1562 14.3906 50.1445 14.332 49.6523 13.9219C49.6406 13.9102 48.6211 13.875 47.3789 13.8398L45.1289 13.7695L47.4609 11.2734C48.75 9.90234 49.875 8.66015 49.9805 8.51953C50.1211 8.32031 50.1562 7.85156 50.1562 6.03515C50.1562 3.84375 50.1445 3.78515 49.8867 3.53906L49.6172 3.28125L40.9453 3.29296C36.1875 3.30468 32.1914 3.32812 32.0859 3.36328ZM46.6289 5.58984C46.3945 5.83593 42.5859 9.92578 38.1562 14.6719L30.1055 23.3203H22.9453H15.7852L16.5938 22.4648C17.0508 22.0078 20.8828 17.918 25.1133 13.3828L32.8242 5.15625H39.9258H47.0391L46.6289 5.58984ZM47.3789 8.61328C43.6289 12.6797 31.5586 25.5352 31.4883 25.5352C31.4297 25.5469 31.4062 25.3359 31.4297 25.0781C31.4648 24.6445 31.9336 24.1055 39.8438 15.6328L48.2227 6.64453L48.2578 7.13671C48.293 7.60546 48.2578 7.67578 47.3789 8.61328ZM46.9688 15.8086C46.957 15.8672 43.1484 19.9453 38.5195 24.8906L30.1055 33.8672H28.1133H26.1094L28.4062 31.418C29.6719 30.0703 30.8203 28.8984 30.9609 28.793C31.1133 28.6992 33.9492 25.7227 37.2656 22.1602L43.3008 15.7031H45.1523C46.1836 15.7031 46.9922 15.75 46.9688 15.8086ZM47.7773 18.7383C47.4961 19.0312 43.7344 23.0508 39.4336 27.6562C35.1211 32.2617 31.5469 36.0586 31.4883 36.082C31.4414 36.0937 31.4062 35.9062 31.4297 35.6367C31.4648 35.1914 31.8516 34.7461 39.8438 26.2148L48.2227 17.2617L48.2578 17.7305C48.293 18.1523 48.2344 18.2578 47.7773 18.7383ZM55.0078 23.3789C54.6914 23.7305 50.8711 27.8437 46.5234 32.5078L38.6133 41.0039H31.5C27.5742 41.0156 24.375 40.9805 24.375 40.9336C24.375 40.8867 24.6797 40.5469 25.043 40.1719L25.7109 39.4922H28.2773H30.8438L31.5234 38.8125C31.8984 38.4492 35.4141 34.7109 39.3281 30.5273L46.4414 22.9102L47.918 22.8516C48.7266 22.8164 50.7891 22.7695 52.4883 22.7578L55.5703 22.7344L55.0078 23.3789ZM56.4492 25.6523C56.2266 25.8867 52.5234 29.8477 48.2227 34.4531C43.9219 39.0586 40.3008 42.9375 40.1719 43.0664C39.9492 43.3008 39.9492 43.3008 39.9844 42.75L40.0195 42.1992L48.3984 33.2227L56.7773 24.2344L56.8125 24.7266C56.8477 25.1602 56.8008 25.2891 56.4492 25.6523ZM29.5312 26.1328V27.0703H22.0312H14.5312V26.1328V25.1953H22.0312H29.5312V26.1328ZM17.332 29.4961C15.375 31.5586 12.9961 34.1367 12.832 34.3828C12.668 34.6289 12.6445 34.9922 12.6797 36.8555C12.7148 38.9883 12.7266 39.0469 12.9961 39.2695C13.2422 39.4805 13.4883 39.4922 16.2422 39.4922C17.8828 39.4922 19.2188 39.5391 19.2188 39.5859C19.2188 39.6328 18.9141 39.9727 18.5391 40.3477L17.8594 41.0156H10.793C6.91406 41.0156 3.75 40.9687 3.77344 40.9219C3.78516 40.8633 6.31641 38.1445 9.375 34.8867L14.9414 28.9453H16.4062H17.8594L17.332 29.4961ZM22.9688 31.4062V33.8672H22.0312H21.0938V31.4062V28.9453H22.0312H22.9688V31.4062ZM27.4688 29.6719C25.7578 31.5 24.9492 32.3437 24.9023 32.3437C24.8672 32.3437 24.8438 31.582 24.8438 30.6445V28.9453H26.5078H28.1602L27.4688 29.6719ZM19.2188 32.0508V33.8672H17.5078H15.7969L17.4844 32.0625C18.3984 31.0664 19.1719 30.2578 19.1953 30.2461C19.207 30.2344 19.2188 31.0547 19.2188 32.0508ZM55.0078 34.0078C54.6797 34.3477 50.8594 38.4258 46.5117 43.0664L38.625 51.5039L36.6562 51.5391C35.5781 51.5508 34.6875 51.5391 34.6875 51.4922C34.6875 51.3867 38.0391 47.8594 40.1367 45.75C41.0977 44.7773 44.1094 41.6016 46.8164 38.6953L51.7383 33.4102H53.6719L55.5938 33.3984L55.0078 34.0078ZM56.4492 36.1992C56.2383 36.4336 52.5586 40.3594 48.2812 44.9414C44.0039 49.5117 40.3828 53.3906 40.2305 53.5547L39.9492 53.8477L39.9844 53.2969L40.0195 52.7578L48.3984 43.8047L56.7773 34.8633L56.8125 35.3203C56.8477 35.707 56.7891 35.8359 56.4492 36.1992ZM29.5312 36.6797V37.6172H22.0312H14.5312V36.6797V35.7422H22.0312H29.5312V36.6797ZM22.7344 39.5625C22.7344 39.6094 22.1133 40.3008 21.3633 41.1094C20.6016 41.9062 19.8398 42.7383 19.6641 42.9375L19.3477 43.3008V42.7734C19.3359 42.2578 19.3828 42.1992 20.6367 40.8633C21.7969 39.6328 21.9727 39.4922 22.3359 39.4922C22.5586 39.4922 22.7344 39.5273 22.7344 39.5625ZM17.4609 43.8281V44.7656H9.96094H2.46094V43.8281V42.8906H9.96094H17.4609V43.8281ZM38.0859 43.8281V44.7656H30.5859H23.0859V43.8281V42.8906H30.5859H38.0859V43.8281ZM21.3398 46.1367C21.4688 46.3711 21.8438 46.582 22.2891 46.6641C22.4297 46.6875 21.8438 47.3906 20.2383 49.125L17.9883 51.5508H16.0312C14.9414 51.5625 14.0625 51.5273 14.0625 51.4922C14.0625 51.3867 17.543 47.7187 19.4531 45.8203L21.1523 44.1211L21.1875 45C21.1992 45.4805 21.2695 45.9961 21.3398 46.1367ZM10.8984 49.1016V51.5625H9.96094H9.02344V49.1016V46.6406H9.96094H10.8984V49.1016ZM15.3984 47.25C15.0938 47.5898 14.3672 48.3633 13.8047 48.9727L12.7734 50.0859V48.3633V46.6406H14.3672H15.9727L15.3984 47.25ZM25.5938 47.1328C25.3242 47.4141 23.8828 48.9492 22.3828 50.5664C20.8828 52.1719 19.582 53.5781 19.4883 53.6719C19.3477 53.8242 19.3242 53.7773 19.3594 53.2969C19.3945 52.7695 19.4414 52.7109 22.2539 49.6992C25.0898 46.6758 25.1133 46.6406 25.5938 46.6406H26.0625L25.5938 47.1328ZM31.5234 49.1016V51.5625H30.5859H29.6484V49.1016V46.6406H30.5859H31.5234V49.1016ZM36.082 47.1914C35.8008 47.5078 35.0859 48.2812 34.4883 48.9141L33.3984 50.0742V48.3633V46.6406H34.9922H36.5977L36.082 47.1914ZM27.7734 49.5703V51.5625H25.957C24.9609 51.5625 24.1406 51.5273 24.1406 51.4922C24.1406 51.4336 27.668 47.6016 27.75 47.5898C27.7617 47.5781 27.7734 48.4687 27.7734 49.5703ZM7.14844 49.7461V51.5625H5.44922C4.51172 51.5625 3.75 51.5273 3.75 51.4922C3.75 51.4102 7.03125 47.9297 7.10156 47.9297C7.125 47.9297 7.14844 48.75 7.14844 49.7461ZM17.4609 54.375V55.3125H9.96094H2.46094V54.375V53.4375H9.96094H17.4609V54.375ZM38.0859 54.375V55.3125H30.5859H23.0859V54.375V53.4375H30.5859H38.0859V54.375Z"/>
</mask>
<path d="M32.0859 3.36328C31.8984 3.41015 13.7461 22.6992 12.9727 23.6602L12.6445 24.0703L12.668 26.332L12.6914 28.6055L7.07812 34.5937C3.99609 37.8867 1.26562 40.8164 1.03125 41.1094L0.585938 41.625V43.7695C0.585938 44.9531 0.621094 46.0078 0.65625 46.1016C0.808594 46.5 1.20703 46.582 3.42188 46.6406L5.625 46.6992L3.42188 49.043C2.21484 50.3437 1.08984 51.5742 0.914062 51.7852L0.585938 52.1719V54.3164C0.585938 55.5 0.621094 56.5547 0.65625 56.6602C0.867188 57.1875 0.878906 57.1875 10.043 57.1875H18.6914L19.957 55.8867L21.2109 54.5742V55.5234C21.2109 56.0391 21.2461 56.5547 21.2812 56.6602C21.4922 57.1875 21.5156 57.1875 30.5859 57.1875C36.1875 57.1875 39.2344 57.1406 39.375 57.0703C39.6562 56.918 58.4062 36.9141 58.5938 36.5742C58.6875 36.3984 58.7109 35.6367 58.6875 34.1602C58.6523 32.2734 58.6289 31.9687 58.4414 31.793C58.2656 31.6055 57.9375 31.5703 55.9102 31.5234L53.5898 31.4648L55.8047 29.1211C57.0234 27.832 58.1719 26.5664 58.3594 26.3203L58.7109 25.8633V23.707V21.5391L58.3594 21.1875L58.0078 20.8359L53.2031 20.8711C50.5547 20.8945 48.3984 20.8945 48.3984 20.8828C48.3984 20.8594 48.7969 20.4141 49.2773 19.8867L50.1562 18.9492V16.6992C50.1562 14.3906 50.1445 14.332 49.6523 13.9219C49.6406 13.9102 48.6211 13.875 47.3789 13.8398L45.1289 13.7695L47.4609 11.2734C48.75 9.90234 49.875 8.66015 49.9805 8.51953C50.1211 8.32031 50.1562 7.85156 50.1562 6.03515C50.1562 3.84375 50.1445 3.78515 49.8867 3.53906L49.6172 3.28125L40.9453 3.29296C36.1875 3.30468 32.1914 3.32812 32.0859 3.36328ZM46.6289 5.58984C46.3945 5.83593 42.5859 9.92578 38.1562 14.6719L30.1055 23.3203H22.9453H15.7852L16.5938 22.4648C17.0508 22.0078 20.8828 17.918 25.1133 13.3828L32.8242 5.15625H39.9258H47.0391L46.6289 5.58984ZM47.3789 8.61328C43.6289 12.6797 31.5586 25.5352 31.4883 25.5352C31.4297 25.5469 31.4062 25.3359 31.4297 25.0781C31.4648 24.6445 31.9336 24.1055 39.8438 15.6328L48.2227 6.64453L48.2578 7.13671C48.293 7.60546 48.2578 7.67578 47.3789 8.61328ZM46.9688 15.8086C46.957 15.8672 43.1484 19.9453 38.5195 24.8906L30.1055 33.8672H28.1133H26.1094L28.4062 31.418C29.6719 30.0703 30.8203 28.8984 30.9609 28.793C31.1133 28.6992 33.9492 25.7227 37.2656 22.1602L43.3008 15.7031H45.1523C46.1836 15.7031 46.9922 15.75 46.9688 15.8086ZM47.7773 18.7383C47.4961 19.0312 43.7344 23.0508 39.4336 27.6562C35.1211 32.2617 31.5469 36.0586 31.4883 36.082C31.4414 36.0937 31.4062 35.9062 31.4297 35.6367C31.4648 35.1914 31.8516 34.7461 39.8438 26.2148L48.2227 17.2617L48.2578 17.7305C48.293 18.1523 48.2344 18.2578 47.7773 18.7383ZM55.0078 23.3789C54.6914 23.7305 50.8711 27.8437 46.5234 32.5078L38.6133 41.0039H31.5C27.5742 41.0156 24.375 40.9805 24.375 40.9336C24.375 40.8867 24.6797 40.5469 25.043 40.1719L25.7109 39.4922H28.2773H30.8438L31.5234 38.8125C31.8984 38.4492 35.4141 34.7109 39.3281 30.5273L46.4414 22.9102L47.918 22.8516C48.7266 22.8164 50.7891 22.7695 52.4883 22.7578L55.5703 22.7344L55.0078 23.3789ZM56.4492 25.6523C56.2266 25.8867 52.5234 29.8477 48.2227 34.4531C43.9219 39.0586 40.3008 42.9375 40.1719 43.0664C39.9492 43.3008 39.9492 43.3008 39.9844 42.75L40.0195 42.1992L48.3984 33.2227L56.7773 24.2344L56.8125 24.7266C56.8477 25.1602 56.8008 25.2891 56.4492 25.6523ZM29.5312 26.1328V27.0703H22.0312H14.5312V26.1328V25.1953H22.0312H29.5312V26.1328ZM17.332 29.4961C15.375 31.5586 12.9961 34.1367 12.832 34.3828C12.668 34.6289 12.6445 34.9922 12.6797 36.8555C12.7148 38.9883 12.7266 39.0469 12.9961 39.2695C13.2422 39.4805 13.4883 39.4922 16.2422 39.4922C17.8828 39.4922 19.2188 39.5391 19.2188 39.5859C19.2188 39.6328 18.9141 39.9727 18.5391 40.3477L17.8594 41.0156H10.793C6.91406 41.0156 3.75 40.9687 3.77344 40.9219C3.78516 40.8633 6.31641 38.1445 9.375 34.8867L14.9414 28.9453H16.4062H17.8594L17.332 29.4961ZM22.9688 31.4062V33.8672H22.0312H21.0938V31.4062V28.9453H22.0312H22.9688V31.4062ZM27.4688 29.6719C25.7578 31.5 24.9492 32.3437 24.9023 32.3437C24.8672 32.3437 24.8438 31.582 24.8438 30.6445V28.9453H26.5078H28.1602L27.4688 29.6719ZM19.2188 32.0508V33.8672H17.5078H15.7969L17.4844 32.0625C18.3984 31.0664 19.1719 30.2578 19.1953 30.2461C19.207 30.2344 19.2188 31.0547 19.2188 32.0508ZM55.0078 34.0078C54.6797 34.3477 50.8594 38.4258 46.5117 43.0664L38.625 51.5039L36.6562 51.5391C35.5781 51.5508 34.6875 51.5391 34.6875 51.4922C34.6875 51.3867 38.0391 47.8594 40.1367 45.75C41.0977 44.7773 44.1094 41.6016 46.8164 38.6953L51.7383 33.4102H53.6719L55.5938 33.3984L55.0078 34.0078ZM56.4492 36.1992C56.2383 36.4336 52.5586 40.3594 48.2812 44.9414C44.0039 49.5117 40.3828 53.3906 40.2305 53.5547L39.9492 53.8477L39.9844 53.2969L40.0195 52.7578L48.3984 43.8047L56.7773 34.8633L56.8125 35.3203C56.8477 35.707 56.7891 35.8359 56.4492 36.1992ZM29.5312 36.6797V37.6172H22.0312H14.5312V36.6797V35.7422H22.0312H29.5312V36.6797ZM22.7344 39.5625C22.7344 39.6094 22.1133 40.3008 21.3633 41.1094C20.6016 41.9062 19.8398 42.7383 19.6641 42.9375L19.3477 43.3008V42.7734C19.3359 42.2578 19.3828 42.1992 20.6367 40.8633C21.7969 39.6328 21.9727 39.4922 22.3359 39.4922C22.5586 39.4922 22.7344 39.5273 22.7344 39.5625ZM17.4609 43.8281V44.7656H9.96094H2.46094V43.8281V42.8906H9.96094H17.4609V43.8281ZM38.0859 43.8281V44.7656H30.5859H23.0859V43.8281V42.8906H30.5859H38.0859V43.8281ZM21.3398 46.1367C21.4688 46.3711 21.8438 46.582 22.2891 46.6641C22.4297 46.6875 21.8438 47.3906 20.2383 49.125L17.9883 51.5508H16.0312C14.9414 51.5625 14.0625 51.5273 14.0625 51.4922C14.0625 51.3867 17.543 47.7187 19.4531 45.8203L21.1523 44.1211L21.1875 45C21.1992 45.4805 21.2695 45.9961 21.3398 46.1367ZM10.8984 49.1016V51.5625H9.96094H9.02344V49.1016V46.6406H9.96094H10.8984V49.1016ZM15.3984 47.25C15.0938 47.5898 14.3672 48.3633 13.8047 48.9727L12.7734 50.0859V48.3633V46.6406H14.3672H15.9727L15.3984 47.25ZM25.5938 47.1328C25.3242 47.4141 23.8828 48.9492 22.3828 50.5664C20.8828 52.1719 19.582 53.5781 19.4883 53.6719C19.3477 53.8242 19.3242 53.7773 19.3594 53.2969C19.3945 52.7695 19.4414 52.7109 22.2539 49.6992C25.0898 46.6758 25.1133 46.6406 25.5938 46.6406H26.0625L25.5938 47.1328ZM31.5234 49.1016V51.5625H30.5859H29.6484V49.1016V46.6406H30.5859H31.5234V49.1016ZM36.082 47.1914C35.8008 47.5078 35.0859 48.2812 34.4883 48.9141L33.3984 50.0742V48.3633V46.6406H34.9922H36.5977L36.082 47.1914ZM27.7734 49.5703V51.5625H25.957C24.9609 51.5625 24.1406 51.5273 24.1406 51.4922C24.1406 51.4336 27.668 47.6016 27.75 47.5898C27.7617 47.5781 27.7734 48.4687 27.7734 49.5703ZM7.14844 49.7461V51.5625H5.44922C4.51172 51.5625 3.75 51.5273 3.75 51.4922C3.75 51.4102 7.03125 47.9297 7.10156 47.9297C7.125 47.9297 7.14844 48.75 7.14844 49.7461ZM17.4609 54.375V55.3125H9.96094H2.46094V54.375V53.4375H9.96094H17.4609V54.375ZM38.0859 54.375V55.3125H30.5859H23.0859V54.375V53.4375H30.5859H38.0859V54.375Z" stroke="black" stroke-width="2" mask="url(#path-1-inside-1_3_107)"/>
</svg>
